 <svg
      width="24"
      height="22"
      viewBox="0 0 24 22"
      fill="none"
      xmlns="http://www.w3.org/2000/svg"
    >
      <path
        d="M16.7625 14.8192L18.0958 13.4442C18.3042 13.2294 18.6667 13.3798 18.6667 13.6892V19.9368C18.6667 21.0755 17.7708 21.9993 16.6667 21.9993H2C0.895833 21.9993 0 21.0755 0 19.9368V4.81182C0 3.67314 0.895833 2.74932 2 2.74932H13.3958C13.6917 2.74932 13.8417 3.11885 13.6333 3.33799L12.3 4.71299C12.2375 4.77744 12.1542 4.81182 12.0625 4.81182H2V19.9368H16.6667V15.0599C16.6667 14.9696 16.7 14.8837 16.7625 14.8192ZM23.2875 6.14814L12.3458 17.4317L8.57917 17.8614C7.4875 17.986 6.55833 17.0364 6.67917 15.9021L7.09583 12.0177L18.0375 0.734082C18.9917 -0.249902 20.5333 -0.249902 21.4833 0.734082L23.2833 2.59033C24.2375 3.57432 24.2375 5.16846 23.2875 6.14814ZM19.1708 7.47588L16.75 4.97939L9.00833 12.9673L8.70417 15.7731L11.425 15.4595L19.1708 7.47588ZM21.8708 4.05127L20.0708 2.19502C19.9 2.01885 19.6208 2.01885 19.4542 2.19502L18.1667 3.52275L20.5875 6.01924L21.875 4.6915C22.0417 4.51103 22.0417 4.22744 21.8708 4.05127Z"
        fill="black"
      />
    </svg>