<svg width="38" height="38" viewBox="0 0 38 38" fill="none" xmlns="http://www.w3.org/2000/svg">
<g clip-path="url(#clip0_155_92)">
<rect width="38" height="38" fill="white"/>
<path d="M38 35.625C38 36.936 36.936 38 35.625 38H2.375C1.064 38 0 36.936 0 35.625V2.375C0 1.064 1.064 0 2.375 0H35.625C36.936 0 38 1.064 38 2.375V35.625Z" fill="#CBCBCB"/>
<path d="M13.0625 13.0625H8.3125V29.6875H13.0625V13.0625Z" fill="white"/>
<path d="M24.3426 13.0625C21.0283 13.0625 20.4583 14.2714 20.1875 15.4375V13.0625H15.4375V29.6875H20.1875V20.1875C20.1875 18.6473 21.0223 17.8125 22.5625 17.8125C24.0659 17.8125 24.9375 18.6295 24.9375 20.1875V29.6875H29.6875V21.375C29.6875 16.625 29.0688 13.0625 24.3426 13.0625Z" fill="white"/>
<path d="M10.6875 11.875C11.9992 11.875 13.0625 10.8117 13.0625 9.5C13.0625 8.18832 11.9992 7.125 10.6875 7.125C9.37582 7.125 8.3125 8.18832 8.3125 9.5C8.3125 10.8117 9.37582 11.875 10.6875 11.875Z" fill="white"/>
</g>
<defs>
<clipPath id="clip0_155_92">
<rect width="38" height="38" fill="white"/>
</clipPath>
</defs>
</svg>
