<svg width="45" height="45" viewBox="0 0 45 45" fill="none" xmlns="http://www.w3.org/2000/svg">
<path fill-rule="evenodd" clip-rule="evenodd" d="M28.125 15C28.125 18.1066 25.6067 20.625 22.5 20.625C19.3935 20.625 16.875 18.1066 16.875 15C16.875 11.8934 19.3935 9.375 22.5 9.375C25.6067 9.375 28.125 11.8934 28.125 15ZM24.375 15C24.375 16.0355 23.5355 16.875 22.5 16.875C21.4644 16.875 20.625 16.0355 20.625 15C20.625 13.9645 21.4644 13.125 22.5 13.125C23.5355 13.125 24.375 13.9645 24.375 15Z" fill="#00A5BF"/>
<path fill-rule="evenodd" clip-rule="evenodd" d="M24.8269 33.4684C28.5975 29.7711 35.625 21.9476 35.625 15C35.625 7.70625 29.7487 1.875 22.5 1.875C15.2513 1.875 9.375 7.70625 9.375 15C9.375 21.9476 16.4026 29.7711 20.1731 33.4684C21.483 34.7529 23.517 34.7529 24.8269 33.4684ZM28.536 23.3486C30.6369 20.2498 31.875 17.3309 31.875 15C31.875 9.7857 27.6861 5.625 22.5 5.625C17.314 5.625 13.125 9.7857 13.125 15C13.125 17.3309 14.363 20.2498 16.464 23.3486C18.3861 26.1836 20.7321 28.7376 22.5 30.4959C24.2679 28.7376 26.6139 26.1836 28.536 23.3486Z" fill="#00A5BF"/>
<path d="M11.039 28.7326C10.1672 27.8607 8.70576 28.0532 8.08934 29.1209L2.43959 38.9065C1.35706 40.7815 2.71023 43.1252 4.87529 43.1252H40.1268C42.2919 43.1252 43.6451 40.7815 42.5627 38.9065L36.9108 29.1173C36.2943 28.0497 34.833 27.8573 33.9611 28.729C33.3611 29.329 33.2388 30.2573 33.6632 30.9923L38.5031 39.3752H6.4991L11.3369 30.9959C11.7612 30.2609 11.639 29.3326 11.039 28.7326Z" fill="#00A5BF"/>
</svg>
