<svg width="44" height="44" viewBox="0 0 44 44" fill="none" xmlns="http://www.w3.org/2000/svg">
<circle cx="22" cy="22" r="22" fill="white"/>
<circle cx="22" cy="22" r="21.5" stroke="black" stroke-opacity="0.13"/>
<path d="M25.3127 29C25.3127 29.7957 25.0163 30.5587 24.4889 31.1213C23.9615 31.6839 23.2461 32 22.5002 32C21.7543 32 21.0389 31.6839 20.5115 31.1213C19.9841 30.5587 19.6877 29.7957 19.6877 29M23.1761 15.003L21.8018 15C18.6668 14.992 15.9453 17.709 15.9238 21V24.79C15.9238 25.58 15.83 26.351 15.4259 27.008L15.1569 27.446C14.7472 28.11 15.1878 29 15.9238 29H29.0766C29.8126 29 30.2523 28.11 29.8435 27.446L29.5745 27.008C29.1713 26.351 29.0766 25.579 29.0766 24.789V21.001C29.0391 17.709 26.3111 15.011 23.1761 15.003V15.003Z" stroke="#00A5BF" stroke-width="1.6" stroke-linecap="round" stroke-linejoin="round"/>
</svg>
