<svg width="45" height="45" viewBox="0 0 45 45" fill="none" xmlns="http://www.w3.org/2000/svg">
<path fill-rule="evenodd" clip-rule="evenodd" d="M39.3838 40.0162C40.5617 39.0081 41.2429 37.5375 41.25 35.9871V30.3366C41.25 28.6914 40.1777 27.2385 38.6059 26.7534L32.0871 24.7417C30.9105 24.3787 29.6308 24.6163 28.6629 25.3774L26.0616 27.4234C24.4414 26.2884 22.8971 24.9973 21.4498 23.5502C20.0027 22.1029 18.7116 20.5586 17.5766 18.9384L19.6226 16.337C20.3837 15.3693 20.6212 14.0895 20.2582 12.913L18.2466 6.39422C17.7615 4.82224 16.3085 3.75 14.6634 3.75H9.01294C7.46252 3.75714 5.99184 4.43831 4.98369 5.61623C4.15044 6.5898 3.67886 7.83182 3.75875 9.11079C4.26236 17.1717 7.5936 25.0881 13.7527 31.2472C19.9119 37.4064 27.8284 40.7376 35.8892 41.2412C37.1681 41.3211 38.4101 40.8495 39.3838 40.0162ZM14.6291 16.6201C13.6069 17.9197 13.5565 19.7355 14.5051 21.0898C15.7647 22.8879 17.1961 24.5996 18.7982 26.2018C20.4004 27.8038 22.1121 29.2354 23.9102 30.4948C25.2645 31.4434 27.0802 31.3931 28.38 30.3709L30.9812 28.3251L37.5 30.3366V35.976C37.4961 36.4344 37.2939 36.8691 36.9454 37.1674C36.6234 37.4428 36.3178 37.5107 36.123 37.4985C28.9388 37.0496 21.8929 34.0841 16.4044 28.5956C10.9159 23.1071 7.9503 16.0612 7.50146 8.87696C7.48929 8.68215 7.55711 8.3766 7.83268 8.05463C8.13099 7.70608 8.56556 7.50386 9.02413 7.5H14.6634L16.675 14.0188L14.6291 16.6201Z" fill="#00A5BF"/>
</svg>
