<svg width="136" height="137" viewBox="0 0 136 137" fill="none" xmlns="http://www.w3.org/2000/svg">
<path d="M123.13 62.3576C120.293 36.6426 99.8816 16.2309 74.1666 13.3942V0.690918H61.8333V13.3942C54.865 14.1651 48.3283 16.2617 42.3775 19.3759L51.6275 28.6259C56.6841 26.5601 62.2033 25.3884 68 25.3884C91.8341 25.3884 111.167 44.7209 111.167 68.5551C111.167 74.3517 109.995 79.8709 107.929 84.9276L117.179 94.1776C120.293 88.2267 122.359 81.6901 123.13 74.7217H135.833V62.3884H123.13V62.3576ZM12.5 20.8867L25.0491 33.4359C18.4508 41.5142 14.0416 51.4426 12.8391 62.3576H0.166626V74.6909H12.87C15.7066 100.406 36.1183 120.818 61.8333 123.654V136.358H74.1666V123.654C85.0816 122.452 95.01 118.043 103.088 111.444L115.668 124.024L123.5 116.193L20.3625 13.0243L12.5 20.8867ZM94.3008 102.688C87.0241 108.299 77.8975 111.691 68 111.691C44.1658 111.691 24.8333 92.3584 24.8333 68.5242C24.8333 58.5959 28.225 49.5001 33.8366 42.2234L94.3008 102.688Z" fill="#00A5BF"/>
</svg>
