<svg width="467" height="103" viewBox="0 0 467 103" fill="none" xmlns="http://www.w3.org/2000/svg">
<g filter="url(#filter0_d_0_1)">
<rect x="11" y="7" width="445" height="81" rx="15" fill="white"/>
<rect x="12" y="8" width="443" height="79" rx="14" stroke="#03444F" stroke-width="2"/>
</g>
<path d="M38.483 36.0909H40.392L41.5227 37.5568L42.3295 38.5114L44.267 41H42.2216L40.9034 39.3295L40.3409 38.5341L38.483 36.0909ZM44.5455 34.1818C44.5455 35.4356 44.3106 36.5095 43.8409 37.4034C43.375 38.2936 42.7386 38.9754 41.9318 39.4489C41.1288 39.9223 40.2178 40.1591 39.1989 40.1591C38.1799 40.1591 37.267 39.9223 36.4602 39.4489C35.6572 38.9716 35.0208 38.2879 34.5511 37.3977C34.0852 36.5038 33.8523 35.4318 33.8523 34.1818C33.8523 32.928 34.0852 31.8561 34.5511 30.9659C35.0208 30.072 35.6572 29.3883 36.4602 28.9148C37.267 28.4413 38.1799 28.2045 39.1989 28.2045C40.2178 28.2045 41.1288 28.4413 41.9318 28.9148C42.7386 29.3883 43.375 30.072 43.8409 30.9659C44.3106 31.8561 44.5455 32.928 44.5455 34.1818ZM42.4261 34.1818C42.4261 33.2992 42.2879 32.5549 42.0114 31.9489C41.7386 31.339 41.3598 30.8788 40.875 30.5682C40.3902 30.2538 39.8314 30.0966 39.1989 30.0966C38.5663 30.0966 38.0076 30.2538 37.5227 30.5682C37.0379 30.8788 36.6572 31.339 36.3807 31.9489C36.108 32.5549 35.9716 33.2992 35.9716 34.1818C35.9716 35.0644 36.108 35.8106 36.3807 36.4205C36.6572 37.0265 37.0379 37.4867 37.5227 37.8011C38.0076 38.1117 38.5663 38.267 39.1989 38.267C39.8314 38.267 40.3902 38.1117 40.875 37.8011C41.3598 37.4867 41.7386 37.0265 42.0114 36.4205C42.2879 35.8106 42.4261 35.0644 42.4261 34.1818ZM52.0256 36.3295V31.2727H54.0824V40H52.0881V38.4489H51.9972C51.8002 38.9375 51.4763 39.3371 51.0256 39.6477C50.5786 39.9583 50.0275 40.1136 49.3722 40.1136C48.8002 40.1136 48.2945 39.9867 47.8551 39.733C47.4195 39.4754 47.0786 39.1023 46.8324 38.6136C46.5862 38.1212 46.4631 37.5265 46.4631 36.8295V31.2727H48.5199V36.5114C48.5199 37.0644 48.6714 37.5038 48.9744 37.8295C49.2775 38.1553 49.6752 38.3182 50.1676 38.3182C50.4706 38.3182 50.7642 38.2443 51.0483 38.0966C51.3324 37.9489 51.5653 37.7292 51.7472 37.4375C51.9328 37.142 52.0256 36.7727 52.0256 36.3295ZM58.7088 40.1761C58.1558 40.1761 57.6577 40.0777 57.2145 39.8807C56.7751 39.6799 56.4266 39.3845 56.169 38.9943C55.9152 38.6042 55.7884 38.1231 55.7884 37.5511C55.7884 37.0587 55.8793 36.6515 56.0611 36.3295C56.2429 36.0076 56.491 35.75 56.8054 35.5568C57.1198 35.3636 57.474 35.2178 57.8679 35.1193C58.2656 35.017 58.6766 34.9432 59.1009 34.8977C59.6122 34.8447 60.027 34.7973 60.3452 34.7557C60.6634 34.7102 60.8944 34.642 61.0384 34.5511C61.1861 34.4564 61.2599 34.3106 61.2599 34.1136V34.0795C61.2599 33.6515 61.133 33.3201 60.8793 33.0852C60.6255 32.8504 60.2599 32.733 59.7827 32.733C59.2789 32.733 58.8793 32.8428 58.5838 33.0625C58.2921 33.2822 58.0952 33.5417 57.9929 33.8409L56.0724 33.5682C56.224 33.0379 56.474 32.5947 56.8224 32.2386C57.1709 31.8788 57.5971 31.6098 58.1009 31.4318C58.6046 31.25 59.1615 31.1591 59.7713 31.1591C60.1918 31.1591 60.6103 31.2083 61.027 31.3068C61.4437 31.4053 61.8243 31.5682 62.169 31.7955C62.5137 32.0189 62.7902 32.3239 62.9986 32.7102C63.2107 33.0966 63.3168 33.5795 63.3168 34.1591V40H61.3395V38.8011H61.2713C61.1463 39.0436 60.9702 39.2708 60.7429 39.483C60.5194 39.6913 60.2372 39.8598 59.8963 39.9886C59.5592 40.1136 59.1634 40.1761 58.7088 40.1761ZM59.2429 38.6648C59.6558 38.6648 60.0137 38.5833 60.3168 38.4205C60.6198 38.2538 60.8527 38.0341 61.0156 37.7614C61.1823 37.4886 61.2656 37.1913 61.2656 36.8693V35.8409C61.2012 35.8939 61.0914 35.9432 60.9361 35.9886C60.7846 36.0341 60.6141 36.0739 60.4247 36.108C60.2353 36.142 60.0478 36.1723 59.8622 36.1989C59.6766 36.2254 59.5156 36.2481 59.3793 36.267C59.0724 36.3087 58.7978 36.3769 58.5554 36.4716C58.313 36.5663 58.1217 36.6989 57.9815 36.8693C57.8414 37.036 57.7713 37.2519 57.7713 37.517C57.7713 37.8958 57.9096 38.1818 58.1861 38.375C58.4626 38.5682 58.8149 38.6648 59.2429 38.6648ZM67.4418 34.8864V40H65.3849V31.2727H67.3509V32.7557H67.4531C67.6539 32.267 67.974 31.8788 68.4134 31.5909C68.8565 31.303 69.4039 31.1591 70.0554 31.1591C70.6577 31.1591 71.1823 31.2879 71.6293 31.5455C72.08 31.803 72.4285 32.1761 72.6747 32.6648C72.9247 33.1534 73.0478 33.7462 73.044 34.4432V40H70.9872V34.7614C70.9872 34.178 70.8357 33.7216 70.5327 33.392C70.2334 33.0625 69.8187 32.8977 69.2884 32.8977C68.9285 32.8977 68.6084 32.9773 68.3281 33.1364C68.0516 33.2917 67.8338 33.517 67.6747 33.8125C67.5194 34.108 67.4418 34.4659 67.4418 34.8864ZM79.4929 31.2727V32.8636H74.4759V31.2727H79.4929ZM75.7145 29.1818H77.7713V37.375C77.7713 37.6515 77.813 37.8636 77.8963 38.0114C77.9834 38.1553 78.0971 38.2538 78.2372 38.3068C78.3774 38.3598 78.5327 38.3864 78.7031 38.3864C78.8319 38.3864 78.9493 38.3769 79.0554 38.358C79.1652 38.339 79.2486 38.322 79.3054 38.3068L79.652 39.9148C79.5421 39.9527 79.3849 39.9943 79.1804 40.0398C78.9796 40.0852 78.7334 40.1117 78.4418 40.1193C77.9266 40.1345 77.4626 40.0568 77.0497 39.8864C76.6368 39.7121 76.3092 39.4432 76.0668 39.0795C75.8281 38.7159 75.7107 38.2614 75.7145 37.7159V29.1818ZM81.2131 40V31.2727H83.2699V40H81.2131ZM82.2472 30.0341C81.9214 30.0341 81.6411 29.9261 81.4062 29.7102C81.1714 29.4905 81.054 29.2273 81.054 28.9205C81.054 28.6098 81.1714 28.3466 81.4062 28.1307C81.6411 27.911 81.9214 27.8011 82.2472 27.8011C82.5767 27.8011 82.857 27.911 83.0881 28.1307C83.3229 28.3466 83.4403 28.6098 83.4403 28.9205C83.4403 29.2273 83.3229 29.4905 83.0881 29.7102C82.857 29.9261 82.5767 30.0341 82.2472 30.0341ZM89.7429 31.2727V32.8636H84.7259V31.2727H89.7429ZM85.9645 29.1818H88.0213V37.375C88.0213 37.6515 88.063 37.8636 88.1463 38.0114C88.2334 38.1553 88.3471 38.2538 88.4872 38.3068C88.6274 38.3598 88.7827 38.3864 88.9531 38.3864C89.0819 38.3864 89.1993 38.3769 89.3054 38.358C89.4152 38.339 89.4986 38.322 89.5554 38.3068L89.902 39.9148C89.7921 39.9527 89.6349 39.9943 89.4304 40.0398C89.2296 40.0852 88.9834 40.1117 88.6918 40.1193C88.1766 40.1345 87.7126 40.0568 87.2997 39.8864C86.8868 39.7121 86.5592 39.4432 86.3168 39.0795C86.0781 38.7159 85.9607 38.2614 85.9645 37.7159V29.1818ZM92.7415 43.2727C92.4612 43.2727 92.2017 43.25 91.9631 43.2045C91.7282 43.1629 91.5407 43.1136 91.4006 43.0568L91.8778 41.4545C92.1771 41.5417 92.4441 41.5833 92.679 41.5795C92.9138 41.5758 93.1203 41.5019 93.2983 41.358C93.4801 41.2178 93.6335 40.983 93.7585 40.6534L93.9347 40.1818L90.7699 31.2727H92.9517L94.9631 37.8636H95.054L97.071 31.2727H99.2585L95.7642 41.0568C95.6013 41.5189 95.3854 41.9148 95.1165 42.2443C94.8475 42.5777 94.518 42.8314 94.1278 43.0057C93.7415 43.1837 93.2794 43.2727 92.7415 43.2727Z" fill="black"/>
<line x1="33" y1="61" x2="434" y2="61" stroke="#DDDDDD" stroke-width="4"/>
<line x1="33" y1="61" x2="163" y2="61" stroke="#00A5BF" stroke-width="4"/>
<circle cx="165" cy="61" r="7" fill="#02A5BF"/>
<defs>
<filter id="filter0_d_0_1" x="0" y="0" width="467" height="103" filterUnits="userSpaceOnUse" color-interpolation-filters="sRGB">
<feFlood flood-opacity="0" result="BackgroundImageFix"/>
<feColorMatrix in="SourceAlpha" type="matrix" values="0 0 0 0 0 0 0 0 0 0 0 0 0 0 0 0 0 0 127 0" result="hardAlpha"/>
<feOffset dy="4"/>
<feGaussianBlur stdDeviation="5.5"/>
<feComposite in2="hardAlpha" operator="out"/>
<feColorMatrix type="matrix" values="0 0 0 0 0 0 0 0 0 0 0 0 0 0 0 0 0 0 0.25 0"/>
<feBlend mode="normal" in2="BackgroundImageFix" result="effect1_dropShadow_0_1"/>
<feBlend mode="normal" in="SourceGraphic" in2="effect1_dropShadow_0_1" result="shape"/>
</filter>
</defs>
</svg>
