<svg width="467" height="206" viewBox="0 0 467 206" fill="none" xmlns="http://www.w3.org/2000/svg">
<g filter="url(#filter0_d_155_114)">
<rect x="11" y="45" width="445" height="146" rx="15" fill="white"/>
<rect x="12" y="46" width="443" height="144" rx="14" stroke="#03444F" stroke-width="2"/>
</g>
<g filter="url(#filter1_d_155_114)">
<path d="M11 22C11 13.7157 17.7157 7 26 7H252C260.284 7 267 13.7157 267 22V69C267 77.2843 260.284 84 252 84H11V22Z" fill="white"/>
<path d="M12 22C12 14.268 18.268 8 26 8H252C259.732 8 266 14.268 266 22V69C266 76.732 259.732 83 252 83H12V22Z" stroke="#03444F" stroke-width="2"/>
</g>
<path d="M35.1477 110V98.3636H37.2557V108.233H42.3807V110H35.1477ZM47.9261 110.17C47.0739 110.17 46.3352 109.983 45.7102 109.608C45.0852 109.233 44.6004 108.708 44.2557 108.034C43.9148 107.36 43.7443 106.572 43.7443 105.67C43.7443 104.769 43.9148 103.979 44.2557 103.301C44.6004 102.623 45.0852 102.097 45.7102 101.722C46.3352 101.347 47.0739 101.159 47.9261 101.159C48.7784 101.159 49.517 101.347 50.142 101.722C50.767 102.097 51.25 102.623 51.5909 103.301C51.9356 103.979 52.108 104.769 52.108 105.67C52.108 106.572 51.9356 107.36 51.5909 108.034C51.25 108.708 50.767 109.233 50.142 109.608C49.517 109.983 48.7784 110.17 47.9261 110.17ZM47.9375 108.523C48.3996 108.523 48.786 108.396 49.0966 108.142C49.4072 107.884 49.6383 107.54 49.7898 107.108C49.9451 106.676 50.0227 106.195 50.0227 105.665C50.0227 105.131 49.9451 104.648 49.7898 104.216C49.6383 103.78 49.4072 103.434 49.0966 103.176C48.786 102.919 48.3996 102.79 47.9375 102.79C47.464 102.79 47.0701 102.919 46.7557 103.176C46.4451 103.434 46.2121 103.78 46.0568 104.216C45.9053 104.648 45.8295 105.131 45.8295 105.665C45.8295 106.195 45.9053 106.676 46.0568 107.108C46.2121 107.54 46.4451 107.884 46.7557 108.142C47.0701 108.396 47.464 108.523 47.9375 108.523ZM57.6491 113.455C56.9105 113.455 56.276 113.354 55.7457 113.153C55.2154 112.956 54.7893 112.691 54.4673 112.358C54.1454 112.025 53.9219 111.655 53.7969 111.25L55.6491 110.801C55.7325 110.972 55.8537 111.14 56.0128 111.307C56.1719 111.477 56.3859 111.617 56.6548 111.727C56.9276 111.841 57.2704 111.898 57.6832 111.898C58.2666 111.898 58.7495 111.756 59.1321 111.472C59.5147 111.191 59.706 110.729 59.706 110.085V108.432H59.6037C59.4976 108.644 59.3423 108.862 59.1378 109.085C58.937 109.309 58.67 109.496 58.3366 109.648C58.0071 109.799 57.5923 109.875 57.0923 109.875C56.4219 109.875 55.8139 109.718 55.2685 109.403C54.7268 109.085 54.295 108.612 53.973 107.983C53.6548 107.35 53.4957 106.559 53.4957 105.608C53.4957 104.65 53.6548 103.841 53.973 103.182C54.295 102.519 54.7287 102.017 55.2741 101.676C55.8196 101.331 56.4276 101.159 57.098 101.159C57.6094 101.159 58.0298 101.246 58.3594 101.42C58.6927 101.591 58.9579 101.797 59.1548 102.04C59.3518 102.278 59.5014 102.504 59.6037 102.716H59.7173V101.273H61.7457V110.142C61.7457 110.888 61.5677 111.506 61.2116 111.994C60.8556 112.483 60.3688 112.848 59.7514 113.091C59.134 113.333 58.4332 113.455 57.6491 113.455ZM57.6662 108.261C58.1018 108.261 58.473 108.155 58.7798 107.943C59.0866 107.731 59.3196 107.426 59.4787 107.028C59.6378 106.631 59.7173 106.153 59.7173 105.597C59.7173 105.047 59.6378 104.566 59.4787 104.153C59.3234 103.741 59.0923 103.42 58.7855 103.193C58.4825 102.962 58.1094 102.847 57.6662 102.847C57.2079 102.847 56.8253 102.966 56.5185 103.205C56.2116 103.443 55.9806 103.771 55.8253 104.188C55.67 104.6 55.5923 105.07 55.5923 105.597C55.5923 106.131 55.67 106.598 55.8253 107C55.9844 107.398 56.2173 107.708 56.5241 107.932C56.8348 108.152 57.2154 108.261 57.6662 108.261ZM63.8537 110V101.273H65.9105V110H63.8537ZM64.8878 100.034C64.562 100.034 64.2817 99.9261 64.0469 99.7102C63.812 99.4905 63.6946 99.2273 63.6946 98.9205C63.6946 98.6098 63.812 98.3466 64.0469 98.1307C64.2817 97.911 64.562 97.8011 64.8878 97.8011C65.2173 97.8011 65.4976 97.911 65.7287 98.1307C65.9635 98.3466 66.081 98.6098 66.081 98.9205C66.081 99.2273 65.9635 99.4905 65.7287 99.7102C65.4976 99.9261 65.2173 100.034 64.8878 100.034ZM70.0824 104.886V110H68.0256V101.273H69.9915V102.756H70.0938C70.2945 102.267 70.6146 101.879 71.054 101.591C71.4972 101.303 72.0445 101.159 72.696 101.159C73.2983 101.159 73.8229 101.288 74.2699 101.545C74.7206 101.803 75.0691 102.176 75.3153 102.665C75.5653 103.153 75.6884 103.746 75.6847 104.443V110H73.6278V104.761C73.6278 104.178 73.4763 103.722 73.1733 103.392C72.8741 103.062 72.4593 102.898 71.929 102.898C71.5691 102.898 71.2491 102.977 70.9688 103.136C70.6922 103.292 70.4744 103.517 70.3153 103.812C70.16 104.108 70.0824 104.466 70.0824 104.886Z" fill="black"/>
<g clip-path="url(#clip0_155_114)">
<path d="M54.75 145H53.375V142.25C53.375 138.455 50.295 135.375 46.5 135.375C42.705 135.375 39.625 138.455 39.625 142.25V145H38.25C36.7306 145 35.5 146.231 35.5 147.75V161.5C35.5 163.019 36.7306 164.25 38.25 164.25H54.75C56.2694 164.25 57.5 163.019 57.5 161.5V147.75C57.5 146.231 56.2694 145 54.75 145ZM46.5 157.375C44.9806 157.375 43.75 156.144 43.75 154.625C43.75 153.106 44.9806 151.875 46.5 151.875C48.0194 151.875 49.25 153.106 49.25 154.625C49.25 156.144 48.0194 157.375 46.5 157.375ZM50.7625 145H42.2375V142.25C42.2375 139.899 44.1488 137.988 46.5 137.988C48.8512 137.988 50.7625 139.899 50.7625 142.25V145Z" fill="black"/>
</g>
<circle cx="45.5213" cy="44.5213" r="11.5213" fill="black"/>
<circle cx="78.3143" cy="44.5213" r="11.5213" fill="black"/>
<circle cx="111.103" cy="44.5213" r="11.5213" fill="black"/>
<circle cx="143.896" cy="44.5213" r="11.5213" fill="black"/>
<circle cx="176.685" cy="44.5213" r="11.5213" fill="black"/>
<circle cx="209.478" cy="44.5213" r="11.5213" fill="black"/>
<line x1="13" y1="121.5" x2="454" y2="121.5" stroke="#E3E3E3"/>
<rect x="71" y="134" width="357" height="11" rx="5.5" fill="#DDDDDD" fill-opacity="0.49"/>
<rect x="71" y="160" width="262" height="11" rx="5.5" fill="#DDDDDD" fill-opacity="0.49"/>
<defs>
<filter id="filter0_d_155_114" x="0" y="38" width="467" height="168" filterUnits="userSpaceOnUse" color-interpolation-filters="sRGB">
<feFlood flood-opacity="0" result="BackgroundImageFix"/>
<feColorMatrix in="SourceAlpha" type="matrix" values="0 0 0 0 0 0 0 0 0 0 0 0 0 0 0 0 0 0 127 0" result="hardAlpha"/>
<feOffset dy="4"/>
<feGaussianBlur stdDeviation="5.5"/>
<feComposite in2="hardAlpha" operator="out"/>
<feColorMatrix type="matrix" values="0 0 0 0 0 0 0 0 0 0 0 0 0 0 0 0 0 0 0.25 0"/>
<feBlend mode="normal" in2="BackgroundImageFix" result="effect1_dropShadow_155_114"/>
<feBlend mode="normal" in="SourceGraphic" in2="effect1_dropShadow_155_114" result="shape"/>
</filter>
<filter id="filter1_d_155_114" x="0" y="0" width="278" height="99" filterUnits="userSpaceOnUse" color-interpolation-filters="sRGB">
<feFlood flood-opacity="0" result="BackgroundImageFix"/>
<feColorMatrix in="SourceAlpha" type="matrix" values="0 0 0 0 0 0 0 0 0 0 0 0 0 0 0 0 0 0 127 0" result="hardAlpha"/>
<feOffset dy="4"/>
<feGaussianBlur stdDeviation="5.5"/>
<feComposite in2="hardAlpha" operator="out"/>
<feColorMatrix type="matrix" values="0 0 0 0 0 0 0 0 0 0 0 0 0 0 0 0 0 0 0.25 0"/>
<feBlend mode="normal" in2="BackgroundImageFix" result="effect1_dropShadow_155_114"/>
<feBlend mode="normal" in="SourceGraphic" in2="effect1_dropShadow_155_114" result="shape"/>
</filter>
<clipPath id="clip0_155_114">
<rect width="33" height="33" fill="white" transform="translate(30 134)"/>
</clipPath>
</defs>
</svg>
