<svg width="303" height="251" viewBox="0 0 303 251" fill="none" xmlns="http://www.w3.org/2000/svg">
<rect width="303" height="251" rx="10" fill="#00A5BF"/>
<path d="M158.655 140.393C154.826 146.693 147.273 145.587 144.866 140.614C138.518 147.58 133.34 140.385 133.34 140.385C134.502 149.679 142.352 156.859 151.871 156.859C161.543 156.859 169.496 149.44 170.451 139.926C170.451 139.926 161.938 144.924 158.655 140.393Z" fill="white"/>
<path d="M112.766 103.859V173.354C112.766 174.815 113.987 175.995 115.502 175.995H188.505C190.016 175.995 191.239 174.815 191.239 173.354V103.859H112.766ZM151.894 161.472C139.673 161.472 129.767 151.468 129.767 139.126C129.767 126.786 139.672 116.779 151.894 116.779C164.112 116.779 174.019 126.785 174.019 139.126C174.019 151.468 164.112 161.472 151.894 161.472Z" fill="white"/>
<path d="M188.505 75.0059H115.502C113.987 75.0059 112.766 76.2826 112.766 77.8591V98.7835H191.239V77.8591C191.239 76.2826 190.016 75.0059 188.505 75.0059ZM127.206 90.8581C125.039 90.8581 123.283 89.0827 123.283 86.8955C123.283 84.705 125.039 82.9328 127.206 82.9328C129.373 82.9328 131.13 84.705 131.13 86.8955C131.131 89.0827 129.375 90.8581 127.206 90.8581ZM144.329 90.8581C142.164 90.8581 140.406 89.0827 140.406 86.8955C140.406 84.705 142.164 82.9328 144.329 82.9328C146.495 82.9328 148.253 84.705 148.253 86.8955C148.254 89.0827 146.496 90.8581 144.329 90.8581Z" fill="white"/>
</svg>
