<svg width="21" height="21" viewBox="0 0 21 21" fill="none" xmlns="http://www.w3.org/2000/svg">
<path d="M10.8706 0.265625C5.34717 0.265625 0.870605 4.74219 0.870605 10.2656C0.870605 15.7891 5.34717 20.2656 10.8706 20.2656C16.394 20.2656 20.8706 15.7891 20.8706 10.2656C20.8706 4.74219 16.394 0.265625 10.8706 0.265625ZM15.394 8.53906L10.394 13.5391C10.1792 13.7539 9.90186 13.8594 9.62061 13.8594C9.33936 13.8594 9.06045 13.7532 8.84678 13.5395L6.34678 11.0395C5.92061 10.6122 5.92061 9.91883 6.34678 9.49148C6.77412 9.06414 7.46748 9.06414 7.89482 9.49148L9.62061 11.2188L13.8472 6.99219C14.2745 6.56484 14.9679 6.56484 15.3952 6.99219C15.8198 7.41797 15.8198 8.11328 15.394 8.53906Z" fill="#00A5BF"/>
</svg>
