<svg width="186" height="21" viewBox="0 0 186 21" fill="none" xmlns="http://www.w3.org/2000/svg">
<path d="M0 20.6869V0H3.74895V17.5455H12.8636V20.6869H0Z" fill="black"/>
<path d="M20.4222 21C19.4386 21 18.5527 20.8249 17.7646 20.4747C16.9831 20.1178 16.3633 19.5926 15.9052 18.899C15.4539 18.2054 15.2282 17.3502 15.2282 16.3333C15.2282 15.4579 15.3899 14.734 15.7132 14.1616C16.0366 13.5892 16.4779 13.1313 17.037 12.7879C17.5961 12.4444 18.226 12.1852 18.9266 12.0101C19.634 11.8283 20.3649 11.697 21.1194 11.6162C22.0289 11.5219 22.7665 11.4377 23.3324 11.3636C23.8983 11.2828 24.3092 11.1616 24.5652 11C24.8279 10.8316 24.9593 10.5724 24.9593 10.2222V10.1616C24.9593 9.40067 24.7336 8.81145 24.2823 8.39394C23.8309 7.97643 23.1808 7.76768 22.332 7.76768C21.436 7.76768 20.7253 7.96296 20.1999 8.35354C19.6811 8.74411 19.3308 9.20539 19.1489 9.73737L15.7335 9.25253C16.0029 8.30976 16.4475 7.52189 17.0673 6.88889C17.6871 6.24916 18.445 5.77104 19.3409 5.45455C20.2369 5.13131 21.2272 4.9697 22.3118 4.9697C23.0596 4.9697 23.804 5.05724 24.545 5.23232C25.286 5.40741 25.9631 5.69697 26.5761 6.10101C27.1891 6.49832 27.6809 7.0404 28.0514 7.72727C28.4287 8.41414 28.6173 9.27273 28.6173 10.303V20.6869H25.1008V18.5556H24.9795C24.7572 18.9865 24.4439 19.3906 24.0397 19.7677C23.6423 20.138 23.1404 20.4377 22.5341 20.6667C21.9345 20.8889 21.2306 21 20.4222 21ZM21.372 18.3131C22.1063 18.3131 22.7429 18.1684 23.2819 17.8788C23.8208 17.5825 24.2351 17.1919 24.5248 16.7071C24.8212 16.2222 24.9694 15.6936 24.9694 15.1212V13.2929C24.8549 13.3872 24.6595 13.4747 24.3833 13.5556C24.1139 13.6364 23.8107 13.7071 23.4739 13.7677C23.137 13.8283 22.8036 13.8822 22.4735 13.9293C22.1434 13.9764 21.8571 14.0168 21.6146 14.0505C21.0689 14.1246 20.5805 14.2458 20.1493 14.4141C19.7182 14.5825 19.378 14.8182 19.1287 15.1212C18.8795 15.4175 18.7548 15.8013 18.7548 16.2727C18.7548 16.9461 19.0007 17.4545 19.4925 17.798C19.9843 18.1414 20.6108 18.3131 21.372 18.3131Z" fill="black"/>
<path d="M42.1883 14.1616V5.17172H45.8463V20.6869H42.2994V17.9293H42.1378C41.7875 18.798 41.2115 19.5084 40.4098 20.0606C39.6149 20.6128 38.6347 20.8889 37.4693 20.8889C36.452 20.8889 35.5527 20.6633 34.7712 20.2121C33.9965 19.7542 33.3902 19.0909 32.9523 18.2222C32.5145 17.3468 32.2955 16.2896 32.2955 15.0505V5.17172H35.9535V14.4848C35.9535 15.468 36.223 16.2492 36.7619 16.8283C37.3009 17.4074 38.0082 17.697 38.884 17.697C39.4229 17.697 39.945 17.5657 40.4502 17.303C40.9555 17.0404 41.3698 16.6498 41.6931 16.1313C42.0232 15.6061 42.1883 14.9495 42.1883 14.1616Z" fill="black"/>
<path d="M53.2659 11.596V20.6869H49.6079V5.17172H53.1042V7.80808H53.2861C53.6431 6.93939 54.2124 6.24916 54.9938 5.73737C55.782 5.22559 56.7555 4.9697 57.9142 4.9697C58.9853 4.9697 59.9183 5.19865 60.7133 5.65657C61.5149 6.11448 62.1347 6.77778 62.5726 7.64647C63.0172 8.51515 63.2361 9.56902 63.2294 10.8081V20.6869H59.5714V11.3737C59.5714 10.3367 59.3019 9.52525 58.763 8.93939C58.2308 8.35354 57.4931 8.06061 56.55 8.06061C55.91 8.06061 55.3408 8.20202 54.8423 8.48485C54.3505 8.76094 53.9631 9.16162 53.6802 9.68687C53.404 10.2121 53.2659 10.8485 53.2659 11.596Z" fill="black"/>
<path d="M72.7079 20.9596C71.4885 20.9596 70.3972 20.6465 69.4338 20.0202C68.4705 19.3939 67.7093 18.4848 67.1501 17.2929C66.591 16.101 66.3114 14.6532 66.3114 12.9495C66.3114 11.2256 66.5944 9.77104 67.1602 8.58586C67.7328 7.39394 68.5042 6.49495 69.4743 5.88889C70.4444 5.27609 71.5256 4.9697 72.718 4.9697C73.6274 4.9697 74.3752 5.12458 74.9613 5.43434C75.5474 5.73737 76.0122 6.10438 76.3558 6.53535C76.6993 6.9596 76.9654 7.36027 77.1541 7.73737H77.3056V0H80.9737V20.6869H77.3764V18.2424H77.1541C76.9654 18.6195 76.6926 19.0202 76.3355 19.4444C75.9785 19.862 75.5069 20.2189 74.9209 20.5152C74.3348 20.8114 73.5971 20.9596 72.7079 20.9596ZM73.7285 17.9596C74.5032 17.9596 75.1634 17.7508 75.709 17.3333C76.2547 16.9091 76.669 16.3199 76.952 15.5657C77.2349 14.8114 77.3764 13.9327 77.3764 12.9293C77.3764 11.9259 77.2349 11.0539 76.952 10.3131C76.6758 9.57239 76.2648 8.99663 75.7191 8.58586C75.1802 8.17508 74.5166 7.9697 73.7285 7.9697C72.9133 7.9697 72.2329 8.18182 71.6873 8.60606C71.1416 9.0303 70.7307 9.61616 70.4545 10.3636C70.1783 11.1111 70.0401 11.9663 70.0401 12.9293C70.0401 13.899 70.1783 14.7643 70.4545 15.5253C70.7374 16.2795 71.1517 16.8754 71.6974 17.3131C72.2498 17.7441 72.9268 17.9596 73.7285 17.9596Z" fill="black"/>
<path d="M84.8717 20.6869V5.17172H88.4186V7.75758H88.5803C88.8632 6.86195 89.3482 6.17172 90.0354 5.68687C90.7293 5.19529 91.5208 4.9495 92.41 4.9495C92.6121 4.9495 92.8378 4.9596 93.0871 4.9798C93.3431 4.99327 93.5553 5.01683 93.7237 5.0505V8.41414C93.5687 8.36027 93.3229 8.31313 92.986 8.27273C92.6559 8.22559 92.3359 8.20202 92.0261 8.20202C91.3591 8.20202 90.7596 8.3468 90.2274 8.63636C89.7019 8.91919 89.2876 9.31313 88.9845 9.81818C88.6813 10.3232 88.5297 10.9057 88.5297 11.5657V20.6869H84.8717Z" fill="black"/>
<path d="M100.342 21C99.3589 21 98.473 20.8249 97.6848 20.4747C96.9034 20.1178 96.2836 19.5926 95.8255 18.899C95.3742 18.2054 95.1485 17.3502 95.1485 16.3333C95.1485 15.4579 95.3102 14.734 95.6335 14.1616C95.9569 13.5892 96.3981 13.1313 96.9573 12.7879C97.5164 12.4444 98.1463 12.1852 98.8469 12.0101C99.5543 11.8283 100.285 11.697 101.04 11.6162C101.949 11.5219 102.687 11.4377 103.253 11.3636C103.819 11.2828 104.23 11.1616 104.485 11C104.748 10.8316 104.88 10.5724 104.88 10.2222V10.1616C104.88 9.40067 104.654 8.81145 104.203 8.39394C103.751 7.97643 103.101 7.76768 102.252 7.76768C101.356 7.76768 100.646 7.96296 100.12 8.35354C99.6014 8.74411 99.2511 9.20539 99.0692 9.73737L95.6537 9.25253C95.9232 8.30976 96.3678 7.52189 96.9876 6.88889C97.6074 6.24916 98.3652 5.77104 99.2612 5.45455C100.157 5.13131 101.147 4.9697 102.232 4.9697C102.98 4.9697 103.724 5.05724 104.465 5.23232C105.206 5.40741 105.883 5.69697 106.496 6.10101C107.109 6.49832 107.601 7.0404 107.972 7.72727C108.349 8.41414 108.538 9.27273 108.538 10.303V20.6869H105.021V18.5556H104.9C104.677 18.9865 104.364 19.3906 103.96 19.7677C103.563 20.138 103.061 20.4377 102.454 20.6667C101.855 20.8889 101.151 21 100.342 21ZM101.292 18.3131C102.027 18.3131 102.663 18.1684 103.202 17.8788C103.741 17.5825 104.155 17.1919 104.445 16.7071C104.741 16.2222 104.89 15.6936 104.89 15.1212V13.2929C104.775 13.3872 104.58 13.4747 104.304 13.5556C104.034 13.6364 103.731 13.7071 103.394 13.7677C103.057 13.8283 102.724 13.8822 102.394 13.9293C102.064 13.9764 101.777 14.0168 101.535 14.0505C100.989 14.1246 100.501 14.2458 100.07 14.4141C99.6385 14.5825 99.2983 14.8182 99.049 15.1212C98.7998 15.4175 98.6751 15.8013 98.6751 16.2727C98.6751 16.9461 98.921 17.4545 99.4128 17.798C99.9046 18.1414 100.531 18.3131 101.292 18.3131Z" fill="black"/>
<path d="M112.216 20.6869V5.17172H115.712V7.80808H115.894C116.217 6.91919 116.753 6.22559 117.501 5.72727C118.248 5.22222 119.141 4.9697 120.179 4.9697C121.229 4.9697 122.115 5.22559 122.836 5.73737C123.564 6.24242 124.076 6.93266 124.372 7.80808H124.534C124.877 6.94613 125.457 6.25926 126.272 5.74748C127.094 5.22896 128.067 4.9697 129.192 4.9697C130.62 4.9697 131.786 5.42088 132.688 6.32323C133.591 7.22559 134.043 8.54209 134.043 10.2727V20.6869H130.374V10.8384C130.374 9.87542 130.118 9.17172 129.606 8.72727C129.094 8.27609 128.468 8.05051 127.727 8.05051C126.844 8.05051 126.154 8.3266 125.655 8.87879C125.164 9.42424 124.918 10.1347 124.918 11.0101V20.6869H121.331V10.6869C121.331 9.88552 121.088 9.24579 120.603 8.76768C120.125 8.28956 119.498 8.05051 118.723 8.05051C118.198 8.05051 117.72 8.18519 117.289 8.45455C116.857 8.71717 116.514 9.09091 116.258 9.57576C116.002 10.0539 115.874 10.6128 115.874 11.2525V20.6869H112.216Z" fill="black"/>
<path d="M144.524 20.9899C143.008 20.9899 141.695 20.6566 140.583 19.9899C139.471 19.3232 138.609 18.3906 137.996 17.1919C137.39 15.9933 137.087 14.5926 137.087 12.9899C137.087 11.3872 137.39 9.98316 137.996 8.77778C138.609 7.57239 139.471 6.63636 140.583 5.9697C141.695 5.30303 143.008 4.9697 144.524 4.9697C146.04 4.9697 147.353 5.30303 148.465 5.9697C149.576 6.63636 150.435 7.57239 151.042 8.77778C151.655 9.98316 151.961 11.3872 151.961 12.9899C151.961 14.5926 151.655 15.9933 151.042 17.1919C150.435 18.3906 149.576 19.3232 148.465 19.9899C147.353 20.6566 146.04 20.9899 144.524 20.9899ZM144.544 18.0606C145.366 18.0606 146.053 17.835 146.606 17.3838C147.158 16.9259 147.569 16.3131 147.838 15.5455C148.115 14.7778 148.253 13.9226 148.253 12.9798C148.253 12.0303 148.115 11.1717 147.838 10.404C147.569 9.62963 147.158 9.01347 146.606 8.55556C146.053 8.09764 145.366 7.86869 144.544 7.86869C143.702 7.86869 143.001 8.09764 142.442 8.55556C141.89 9.01347 141.476 9.62963 141.199 10.404C140.93 11.1717 140.795 12.0303 140.795 12.9798C140.795 13.9226 140.93 14.7778 141.199 15.5455C141.476 16.3131 141.89 16.9259 142.442 17.3838C143.001 17.835 143.702 18.0606 144.544 18.0606Z" fill="black"/>
<path d="M161.836 20.9899C160.321 20.9899 159.007 20.6566 157.895 19.9899C156.784 19.3232 155.922 18.3906 155.309 17.1919C154.702 15.9933 154.399 14.5926 154.399 12.9899C154.399 11.3872 154.702 9.98316 155.309 8.77778C155.922 7.57239 156.784 6.63636 157.895 5.9697C159.007 5.30303 160.321 4.9697 161.836 4.9697C163.352 4.9697 164.666 5.30303 165.777 5.9697C166.889 6.63636 167.748 7.57239 168.354 8.77778C168.967 9.98316 169.274 11.3872 169.274 12.9899C169.274 14.5926 168.967 15.9933 168.354 17.1919C167.748 18.3906 166.889 19.3232 165.777 19.9899C164.666 20.6566 163.352 20.9899 161.836 20.9899ZM161.857 18.0606C162.678 18.0606 163.366 17.835 163.918 17.3838C164.47 16.9259 164.881 16.3131 165.151 15.5455C165.427 14.7778 165.565 13.9226 165.565 12.9798C165.565 12.0303 165.427 11.1717 165.151 10.404C164.881 9.62963 164.47 9.01347 163.918 8.55556C163.366 8.09764 162.678 7.86869 161.857 7.86869C161.014 7.86869 160.314 8.09764 159.755 8.55556C159.202 9.01347 158.788 9.62963 158.512 10.404C158.242 11.1717 158.108 12.0303 158.108 12.9798C158.108 13.9226 158.242 14.7778 158.512 15.5455C158.788 16.3131 159.202 16.9259 159.755 17.3838C160.314 17.835 161.014 18.0606 161.857 18.0606Z" fill="black"/>
<path d="M176.036 11.596V20.6869H172.378V5.17172H175.875V7.80808H176.057C176.414 6.93939 176.983 6.24916 177.764 5.73737C178.552 5.22559 179.526 4.9697 180.685 4.9697C181.756 4.9697 182.689 5.19865 183.484 5.65657C184.285 6.11448 184.905 6.77778 185.343 7.64647C185.788 8.51515 186.007 9.56902 186 10.8081V20.6869H182.342V11.3737C182.342 10.3367 182.072 9.52525 181.533 8.93939C181.001 8.35354 180.264 8.06061 179.32 8.06061C178.68 8.06061 178.111 8.20202 177.613 8.48485C177.121 8.76094 176.734 9.16162 176.451 9.68687C176.174 10.2121 176.036 10.8485 176.036 11.596Z" fill="black"/>
<path d="M149.443 12.7392C149.443 16.2045 147.382 19.0137 144.84 19.0137C142.298 19.0137 140.237 16.2045 140.237 12.7392C140.237 9.27384 142.298 6.46465 144.84 6.46465C147.382 6.46465 149.443 9.27384 149.443 12.7392Z" fill="black"/>
<path d="M167.019 12.7392C167.019 16.2045 164.958 19.0137 162.416 19.0137C159.873 19.0137 157.812 16.2045 157.812 12.7392C157.812 9.27384 159.873 6.46465 162.416 6.46465C164.958 6.46465 167.019 9.27384 167.019 12.7392Z" fill="black"/>
</svg>
