  <svg
    width="244"
    height="50"
    viewBox="0 0 244 50"
    fill="none"
    xmlns="http://www.w3.org/2000/svg"
  >
    <path
      d="M43.9046 26.6794L43.9369 26.682L47.3001 27.0336C47.5362 27.059 47.753 27.1742 47.9063 27.3544L47.9312 27.385L47.8993 27.4009C48.0564 27.5993 48.1258 27.8532 48.091 28.1039C47.3561 33.9458 44.5873 39.3423 40.2703 43.346C35.7909 47.5005 29.9072 49.8088 23.7978 49.8088C20.8305 49.8136 17.8884 49.2673 15.1213 48.198L14.9706 48.1392C14.7441 48.0555 14.5621 47.8833 14.4658 47.6631L14.4513 47.628C14.3569 47.4088 14.3517 47.162 14.4355 46.9399L15.7631 43.7011C15.943 43.2432 16.4527 43.0125 16.9131 43.1749L16.9437 43.1863C23.7293 45.8063 31.4146 44.3306 36.7473 39.3838C40.1416 36.2648 42.3303 32.0513 42.9303 27.4808C42.9939 27.0088 43.4033 26.6655 43.8725 26.678L43.9046 26.6794ZM123.335 12.9338C126.203 12.9338 128.445 13.8087 129.878 15.4891L129.926 15.546V14.124C129.945 13.7271 130.252 13.4064 130.644 13.3676L130.676 13.3651H134.503C134.897 13.3923 135.21 13.7022 135.244 14.0923L135.246 14.124V35.3656C135.37 38.3608 134.449 41.306 132.642 43.6976C130.581 46.206 127.449 47.4762 123.335 47.4762C117.615 47.4762 113.102 43.8574 112.359 38.6887C112.322 38.3156 112.549 37.9686 112.902 37.8516L112.934 37.8419L116.673 36.9632C116.692 36.9588 116.712 36.9551 116.731 36.9523C117.142 36.8921 117.523 37.176 117.583 37.5864C117.925 40.4857 120.417 42.6486 123.335 42.5792C127.756 42.5792 129.836 40.3321 129.877 35.6363L129.878 35.4933V33.632C128.22 35.4907 125.824 36.5178 123.335 36.436C116.976 36.436 112.367 31.4991 112.367 24.7088C112.309 21.6537 113.384 18.6852 115.386 16.3768C117.42 14.1427 120.314 12.889 123.335 12.9338ZM8.17322 38.7685L8.22063 38.7681L8.26822 38.7686C9.79458 38.7861 11.0236 40.0203 11.0401 41.541L11.0403 41.5887C11.0403 41.6044 11.0401 41.6203 11.0398 41.6361C11.0132 43.1933 9.72951 44.4342 8.1723 44.4078C6.6151 44.3812 5.37427 43.0975 5.40058 41.5403C5.42662 40.0149 6.659 38.7929 8.17322 38.7685ZM189.572 12.6382L189.768 12.6397C196.604 12.7341 200.84 17.4923 200.84 25.1082C200.84 25.5112 200.818 25.9139 200.775 26.3145C200.741 26.683 200.439 26.9671 200.072 26.9846L200.041 26.9855H183.792C183.892 30.3982 186.713 33.0984 190.128 33.0488C192.773 33.2151 195.185 31.5324 195.943 28.9907C196.081 28.6258 196.475 28.4296 196.847 28.5342L196.877 28.5434L200.12 29.6857C200.3 29.7433 200.446 29.8704 200.529 30.0374L200.544 30.0692C200.633 30.2451 200.648 30.4495 200.585 30.6363C199.078 35.0966 194.833 38.0478 190.128 37.9059C187.042 37.9366 184.073 36.7312 181.883 34.5587C179.492 32.0436 178.217 28.6715 178.344 25.2041C178.344 17.4142 183.943 12.7325 189.41 12.6396L189.572 12.6382ZM97.6278 12.6382H97.6358C104.594 12.6382 108.916 17.4153 108.916 25.1082C108.915 25.5112 108.894 25.9139 108.852 26.3145C108.82 26.685 108.516 26.9711 108.148 26.985L108.117 26.9855H91.8682C91.9683 30.4076 94.8041 33.1117 98.227 33.0489C100.875 33.2181 103.288 31.5343 104.043 28.9907C104.178 28.6229 104.574 28.4253 104.947 28.5339L104.977 28.5434L108.221 29.6857C108.41 29.7469 108.564 29.8865 108.644 30.0692C108.72 30.2506 108.72 30.4549 108.644 30.6363C107.139 35.0938 102.898 38.0443 98.1951 37.9059C95.1047 37.9408 92.1292 36.7352 89.9349 34.5587C87.5478 32.0417 86.2725 28.6709 86.396 25.2041C86.396 17.3355 92.1078 12.6382 97.6278 12.6382ZM73.0232 12.6301C76.1467 12.6301 78.6711 13.3891 80.5404 14.8829C81.8044 15.8902 82.7412 17.2496 83.2325 18.7894L83.234 18.7955C83.2982 19.061 83.1422 19.3284 82.8833 19.4053L82.8571 19.4124L78.9827 20.6906C78.8107 20.7587 78.6193 20.7587 78.4475 20.6906C78.3007 20.6221 78.1903 20.4941 78.1438 20.3392L78.1232 20.2629C77.7703 19.0014 76.6166 16.9759 73.0232 16.9759C70.4669 16.9759 68.9331 18.4459 68.9331 19.8678L68.9337 19.9241C68.9529 20.8487 69.4556 22.0094 71.6604 22.4506L71.7291 22.464L75.995 23.2628C80.7085 24.212 83.4254 26.7738 83.4793 30.3441L83.4801 30.4526L83.4642 30.3888L83.4632 30.4971C83.3946 34.076 79.9329 37.8419 73.5584 37.8419C66.0892 37.8419 63.1574 33.616 62.6141 31.1237C62.5787 30.8629 62.7378 30.6166 62.9865 30.54L63.0135 30.5324L67.0079 29.2863C67.0793 29.2746 67.1522 29.2746 67.2235 29.2863C67.3251 29.2844 67.4255 29.306 67.5171 29.349L67.551 29.3661C67.6978 29.4364 67.806 29.5681 67.8466 29.7255C68.35 32.1223 70.5148 33.5522 73.6303 33.5522C76.5302 33.5522 77.8483 32.0343 77.8483 30.6603C77.8483 29.3014 76.6996 28.294 74.7192 27.8779L74.6529 27.8643L70.1713 26.9936C65.9933 26.2027 63.3891 23.6063 63.3891 20.2272C63.3891 16.1131 67.8067 12.6301 73.0232 12.6301ZM234.136 5.97576H237.627C238.039 6.00049 238.362 6.33456 238.378 6.74374L238.378 6.77457V13.3332H242.579C242.988 13.3619 243.307 13.6945 243.323 14.1006L243.323 14.132V17.615L243.323 17.6453C243.311 18.0358 243.001 18.353 242.61 18.373L242.579 18.3739H238.378V30.0292C238.378 31.9624 239.144 32.7613 241.117 32.7613C241.517 32.7544 241.916 32.724 242.312 32.6705L242.46 32.6494C242.678 32.6125 242.9 32.674 243.067 32.8172C243.218 32.9571 243.308 33.1495 243.322 33.3539L243.323 33.3924V36.6756C243.326 37.0102 243.108 37.3066 242.788 37.4026C241.868 37.6602 240.917 37.7895 239.962 37.7872L239.832 37.786C235.664 37.786 233.062 35.1318 233.011 30.8388L233.01 30.7082V18.4219H229.375C228.979 18.3985 228.66 18.0876 228.626 17.6949L228.624 17.6629V14.1639C228.623 13.7511 228.937 13.4076 229.344 13.3675L229.375 13.3651L230.352 13.365L230.456 13.3631C231.597 13.3304 233.349 12.868 233.385 10.3217L233.385 10.2415V6.77457C233.384 6.36178 233.698 6.01824 234.106 5.97819L234.136 5.97576ZM166.286 12.6347L166.377 12.6382H166.369C170.482 12.6382 174.633 15.5037 174.716 21.762L174.717 21.9527V36.7476C174.699 37.1445 174.39 37.4651 173.998 37.504L173.966 37.5065H170.14C169.743 37.483 169.426 37.1722 169.391 36.7796L169.389 36.7476V22.4321L169.388 22.3218C169.365 20.4978 168.745 17.567 164.988 17.567C162.211 17.567 160.233 19.728 160.194 22.8717L160.193 22.9673V36.7476C160.175 37.1445 159.868 37.4651 159.475 37.504L159.443 37.5065H155.569C155.172 37.483 154.855 37.1722 154.82 36.7796L154.818 36.7476V22.4321L154.818 22.3218C154.794 20.4978 154.174 17.567 150.416 17.567C147.529 17.567 145.575 19.7123 145.536 22.9178L145.535 23.0152V36.7476C145.515 37.1445 145.208 37.4651 144.816 37.504L144.784 37.5065H140.958C140.564 37.4793 140.251 37.1693 140.217 36.7793L140.215 36.7476V14.0761C140.234 13.682 140.537 13.3623 140.926 13.32L140.958 13.3172H144.641C145.037 13.3405 145.355 13.6514 145.389 14.0441L145.391 14.0761V15.4422C147.048 13.6259 149.403 12.6053 151.861 12.6382C154.709 12.5548 157.365 14.0601 158.756 16.5445C160.412 14.0138 163.268 12.5333 166.286 12.6347ZM223.583 15.4581C225.049 17.3894 225.805 19.7648 225.727 22.1859L225.723 22.2882V36.7476C225.705 37.1417 225.402 37.4613 225.013 37.5037L224.981 37.5065H221.107C220.71 37.483 220.393 37.1722 220.357 36.7796L220.355 36.7476V23.0632C220.355 19.4843 218.67 17.6629 215.475 17.6629C214.063 17.6173 212.714 18.2461 211.839 19.3565C210.994 20.5753 210.557 22.03 210.591 23.5112L210.594 23.5984V36.7476C210.574 37.1445 210.267 37.4651 209.875 37.504L209.843 37.5065H205.976C205.58 37.483 205.262 37.1722 205.228 36.7796L205.226 36.7476V14.0601C205.244 13.6632 205.553 13.3425 205.945 13.3037L205.976 13.3011H209.755C210.149 13.3283 210.462 13.6383 210.496 14.0283L210.498 14.0601V15.6578C212.119 13.6941 214.551 12.5814 217.097 12.6382C219.577 12.5322 221.969 13.572 223.583 15.4581ZM0.926683 27.6486H28.4313C28.9367 27.6529 29.345 28.0576 29.3577 28.5592L29.358 28.5913V32.0344C29.3622 32.5398 28.9644 32.955 28.4633 32.9762L28.4312 32.977H0.926683C0.421158 32.9727 0.0129753 32.5678 0 32.0664V32.0343V28.5912V28.559C0.0127046 28.0685 0.403726 27.6706 0.893864 27.6495L0.926683 27.6486ZM123.998 17.7109C120.228 17.7109 117.831 20.3951 117.831 24.7088C117.831 29.0226 120.195 31.6987 123.998 31.6987C127.625 31.6987 130.069 28.8869 130.069 24.7088C130.069 20.5228 127.625 17.7109 123.998 17.7109ZM92.0382 22.3783L92.0279 22.464H103.396C103.119 19.4272 100.979 17.5334 97.7733 17.4958L97.6758 17.4952C94.8514 17.4493 92.4462 19.5151 92.0496 22.2939L92.0382 22.3783ZM183.994 22.3783L183.984 22.464H195.352C195.075 19.4272 192.935 17.5334 189.729 17.4958L189.632 17.4952C186.807 17.4493 184.402 19.5151 184.005 22.2939L183.994 22.3783ZM31.8743 1.3743C32.1124 1.46021 32.3055 1.63888 32.4095 1.86962C32.505 2.10255 32.505 2.3637 32.4095 2.5965L31.2112 5.79202C31.0452 6.26582 30.5271 6.51588 30.0529 6.35119C23.7753 4.16055 16.8096 5.40522 11.6793 9.6344C8.48196 12.3106 6.21172 15.9286 5.19258 19.9715C5.08708 20.3799 4.71946 20.6654 4.29786 20.6666H4.09014L0.798846 19.8758C0.553448 19.8181 0.342715 19.662 0.2157 19.4443H0.199669C0.0664879 19.2267 0.0289451 18.9638 0.0959467 18.7174C1.40296 13.542 4.32746 8.91876 8.44387 5.52031C14.9895 0.131551 23.877 -1.44114 31.8743 1.3743ZM19.6918 15.1785H47.1962C47.6892 15.1826 48.0922 15.5682 48.1215 16.0565L48.123 16.0892V19.5323C48.1272 20.0378 47.7296 20.4529 47.2284 20.4741L47.1962 20.4749H19.6918C19.1896 20.4664 18.786 20.0631 18.7733 19.5649L18.773 19.5323V16.1211C18.7686 15.6189 19.1614 15.2052 19.6592 15.1797L19.6918 15.1785ZM38.7853 4.6735L38.8327 4.67313L38.8802 4.67354C40.4066 4.69104 41.6356 5.92525 41.6522 7.44589L41.6523 7.4935C41.6523 7.50939 41.6521 7.52529 41.6518 7.54105C41.6254 9.09825 40.3415 10.3391 38.7843 10.3126C37.2271 10.2862 35.9863 9.00234 36.0127 7.44527C36.0386 5.91971 37.2712 4.69788 38.7853 4.6735Z"
      fill="#4FB58B"
    />
  </svg>