<svg width="66" height="66" viewBox="0 0 66 66" fill="none" xmlns="http://www.w3.org/2000/svg">
<path d="M33 5.41406C28.6327 5.41406 24.75 4.125 24.75 4.125V4.38281C24.75 6.57085 25.6192 8.66927 27.1664 10.2164C28.7135 11.7636 30.812 12.6328 33 12.6328C35.188 12.6328 37.2865 11.7636 38.8336 10.2164C40.3808 8.66927 41.25 6.57085 41.25 4.38281V4.125C41.25 4.125 37.3673 5.41406 33 5.41406Z" fill="#03444F"/>
<path d="M45.375 5.67188C44.6673 11.8284 39.3435 16.6289 33 16.6289C26.6565 16.6289 21.3327 11.8284 20.625 5.67188L2.0625 12.1172L4.38281 26.8125L12.3376 27.769C13.2503 27.885 13.2529 27.885 13.2529 28.8247L12.375 61.875H53.625L52.7471 28.8247C52.7201 27.9224 52.7201 27.9224 53.6624 27.769L61.6172 26.8125L63.9375 12.1172L45.375 5.67188Z" fill="#00A5BF"/>
</svg>
