  <svg
    width="747"
    height="103"
    viewBox="0 0 747 103"
    fill="none"
    xmlns="http://www.w3.org/2000/svg"
  >
    <path
      d="M727.639 3.63389L727.8 21.1735L727.805 21.7068L728.25 21.9999L742.905 31.6385L725.365 31.7988L724.832 31.8037L724.539 32.2493L714.9 46.9041L714.74 29.3644L714.735 28.8312L714.29 28.5381L699.635 18.8995L717.174 18.7391L717.708 18.7343L718.001 18.2887L727.639 3.63389Z"
      fill="white"
      stroke="black"
      stroke-width="2"
    />
    <path
      d="M40.2901 42.608L40.5017 65.749L40.5065 66.2823L40.9521 66.5753L60.287 79.292L37.146 79.5036L36.6127 79.5085L36.3196 79.9541L23.6029 99.2889L23.3913 76.1479L23.3865 75.6146L22.9409 75.3216L3.60603 62.6049L26.747 62.3933L27.2803 62.3884L27.5734 61.9428L40.2901 42.608Z"
      fill="white"
      stroke="black"
      stroke-width="2"
    />
  </svg>