<svg width="38" height="38" viewBox="0 0 38 38" fill="none" xmlns="http://www.w3.org/2000/svg">
<g clip-path="url(#clip0_155_86)">
<rect width="38" height="38" fill="white"/>
<path d="M33.25 38H4.75C2.128 38 0 35.872 0 33.25V4.75C0 2.128 2.128 0 4.75 0H33.25C35.872 0 38 2.128 38 4.75V33.25C38 35.872 35.872 38 33.25 38Z" fill="#CBCBCB"/>
<path d="M14.5918 28.6517C23.5503 28.6517 28.4523 21.2227 28.4523 14.7912C28.4523 14.5822 28.4523 14.3732 28.4428 14.1642C29.3928 13.4802 30.2193 12.6157 30.8748 11.6372C30.0008 12.0267 29.0603 12.2832 28.0723 12.4067C29.0793 11.8082 29.8488 10.8487 30.2193 9.70866C29.2788 10.2692 28.2338 10.6682 27.1223 10.8867C26.2293 9.93666 24.9658 9.34766 23.5693 9.34766C20.8808 9.34766 18.6958 11.5327 18.6958 14.2212C18.6958 14.6012 18.7433 14.9717 18.8193 15.3327C14.7723 15.1332 11.1813 13.1857 8.77778 10.2407C8.35978 10.9627 8.12228 11.7987 8.12228 12.6917C8.12228 14.3827 8.98678 15.8742 10.2883 16.7482C9.49028 16.7197 8.73978 16.5012 8.08428 16.1402V16.2067C8.08428 18.5627 9.76578 20.5387 11.9888 20.9852C11.5803 21.0992 11.1528 21.1562 10.7063 21.1562C10.3928 21.1562 10.0888 21.1277 9.79428 21.0707C10.4118 23.0087 12.2168 24.4147 14.3448 24.4527C12.6728 25.7637 10.5733 26.5427 8.29328 26.5427C7.90378 26.5427 7.51428 26.5237 7.13428 26.4762C9.28128 27.8442 11.8463 28.6517 14.5918 28.6517Z" fill="white"/>
</g>
<defs>
<clipPath id="clip0_155_86">
<rect width="38" height="38" fill="white"/>
</clipPath>
</defs>
</svg>
