<svg width="44" height="44" viewBox="0 0 44 44" fill="none" xmlns="http://www.w3.org/2000/svg">
<circle cx="22" cy="22" r="22" fill="white"/>
<circle cx="22" cy="22" r="21.5" stroke="black" stroke-opacity="0.13"/>
<path d="M21.875 14.375C22.5549 14.375 23.2195 14.5766 23.7848 14.9543C24.3501 15.332 24.7907 15.8689 25.0508 16.497C25.311 17.1251 25.3791 17.8163 25.2464 18.4831C25.1138 19.1499 24.7864 19.7624 24.3057 20.2432C23.8249 20.7239 23.2124 21.0513 22.5456 21.1839C21.8788 21.3166 21.1876 21.2485 20.5595 20.9883C19.9314 20.7282 19.3945 20.2876 19.0168 19.7223C18.6391 19.157 18.4375 18.4924 18.4375 17.8125C18.4375 16.9008 18.7997 16.0265 19.4443 15.3818C20.089 14.7372 20.9633 14.375 21.875 14.375ZM21.875 13C20.9232 13 19.9927 13.2822 19.2013 13.8111C18.4099 14.3399 17.7931 15.0915 17.4288 15.9708C17.0646 16.8502 16.9693 17.8178 17.155 18.7514C17.3407 19.6849 17.799 20.5424 18.472 21.2155C19.1451 21.8885 20.0026 22.3468 20.9361 22.5325C21.8697 22.7182 22.8373 22.6229 23.7167 22.2587C24.596 21.8944 25.3476 21.2776 25.8764 20.4862C26.4053 19.6948 26.6875 18.7643 26.6875 17.8125C26.6875 16.5361 26.1805 15.3121 25.278 14.4095C24.3754 13.507 23.1514 13 21.875 13ZM28.75 32.25H27.375V28.8125C27.375 27.9008 27.0128 27.0265 26.3682 26.3818C25.7235 25.7372 24.8492 25.375 23.9375 25.375H19.8125C18.9008 25.375 18.0265 25.7372 17.3818 26.3818C16.7372 27.0265 16.375 27.9008 16.375 28.8125V32.25H15V28.8125C15 27.5361 15.507 26.3121 16.4095 25.4095C17.3121 24.507 18.5361 24 19.8125 24H23.9375C25.2139 24 26.4379 24.507 27.3405 25.4095C28.243 26.3121 28.75 27.5361 28.75 28.8125V32.25Z" fill="#00A5BF"/>
</svg>
