<svg width="172" height="28" viewBox="0 0 172 28" fill="none" xmlns="http://www.w3.org/2000/svg">
<rect width="28" height="28" fill="#00A5BF"/>
<path d="M14.0014 2.54492L16.5731 10.4598H24.8953L18.1625 15.3515L20.7342 23.2664L14.0014 18.3747L7.26861 23.2664L9.84031 15.3515L3.1075 10.4598H11.4297L14.0014 2.54492Z" fill="white"/>
<rect x="36" width="28" height="28" fill="#00A5BF"/>
<path d="M50.0014 2.54492L52.5731 10.4598H60.8953L54.1625 15.3515L56.7342 23.2664L50.0014 18.3747L43.2686 23.2664L45.8403 15.3515L39.1075 10.4598H47.4297L50.0014 2.54492Z" fill="white"/>
<rect x="72" width="28" height="28" fill="#00A5BF"/>
<path d="M86.0014 2.54492L88.5731 10.4598H96.8953L90.1625 15.3515L92.7342 23.2664L86.0014 18.3747L79.2686 23.2664L81.8403 15.3515L75.1075 10.4598H83.4297L86.0014 2.54492Z" fill="white"/>
<rect x="108" width="28" height="28" fill="#00A5BF"/>
<path d="M122.001 2.54492L124.573 10.4598H132.895L126.163 15.3515L128.734 23.2664L122.001 18.3747L115.269 23.2664L117.84 15.3515L111.108 10.4598H119.43L122.001 2.54492Z" fill="white"/>
<rect x="144" width="28" height="28" fill="#00A5BF"/>
<path d="M158.001 2.54492L160.573 10.4598H168.895L162.163 15.3515L164.734 23.2664L158.001 18.3747L151.269 23.2664L153.84 15.3515L147.108 10.4598H155.43L158.001 2.54492Z" fill="white"/>
</svg>
