<svg width="136" height="123" viewBox="0 0 136 123" fill="none" xmlns="http://www.w3.org/2000/svg">
<path fill-rule="evenodd" clip-rule="evenodd" d="M30.8984 80.0352C32.9053 80.5062 34.8058 80.2117 36.6054 79.1759C34.6303 78.9368 32.7847 79.6348 30.8984 80.0352ZM46.8473 60.5676C46.9836 67.1156 45.0127 71.935 42.3438 76.4605C40.4731 79.6327 37.4178 81.2199 33.7329 81.4078C30.5947 81.5681 27.5044 81.3238 24.5113 80.1856C22.2548 79.3283 20.759 77.6718 19.5107 75.7599C17.19 72.2044 14.4647 68.7806 14.3712 64.2598C14.2538 58.615 15.4165 53.3053 19.1447 48.8482C20.7235 46.9614 22.5973 45.6948 25.3189 46.1193C28.0202 46.5406 29.1104 49.8303 29.09 51.8012C29.0806 52.7133 28.3194 53.1727 27.8704 53.7078C25.8254 56.146 25.4082 59.1976 24.4439 62.043C24.245 62.6288 24.6486 62.7901 25.0976 62.8877C28.0108 63.5205 30.6563 63.3341 32.6376 60.6777C33.688 59.2702 34.8241 57.9357 35.5185 56.2948C35.849 55.5148 35.8646 54.7995 35.5744 53.9689C35.2313 52.9842 34.537 51.773 36.2677 51.2342C36.6217 51.124 36.5491 50.8228 36.3836 50.5346C35.6574 49.2743 36.0766 48.0463 37.4445 47.3817C40.2147 46.0352 44.5198 48.4958 44.7871 51.5704C44.8153 51.8936 44.8357 52.269 45.0075 52.5196C46.9303 55.3201 46.5534 58.5862 46.8473 60.5676Z" fill="#03444F"/>
<path fill-rule="evenodd" clip-rule="evenodd" d="M84.9131 61.2803C83.3312 61.0333 81.791 61.1456 80.3359 61.8274C81.9079 62.0248 83.4742 62.2002 84.9131 61.2803ZM76.1889 29.8071C75.5269 30.3799 74.607 30.0964 74.2159 30.9166C74.7323 31.3113 75.2069 30.762 75.6569 30.8597C76.2845 30.9964 77.5719 30.7751 76.5539 32.12C76.4787 32.2197 76.3033 32.3194 76.5163 32.4244C78.2794 33.2952 76.9595 34.4151 76.6823 35.3627C76.3941 36.3531 75.9508 37.3017 75.9273 38.3516C75.895 39.8203 75.8804 41.2894 75.9002 42.757C75.9242 44.5588 76.2041 44.7901 77.9901 44.6204C81.071 44.3275 83.2329 42.107 83.1583 39.0199C83.0967 36.4888 83.5995 34.0669 84.1696 31.6511C84.4635 30.4065 85.2446 29.4088 86.6276 29.1712C88.256 28.8909 90.6184 29.8928 91.2251 31.3384C92.2463 33.7714 93.1662 36.2857 93.528 38.8993C94.2417 44.0591 94.095 49.2059 92.6488 54.2639C92.0839 56.239 91.3133 58.1639 90.1204 59.7939C88.5515 61.937 86.1953 62.9013 83.5671 63.176C80.2466 63.5226 77.0472 63.4146 74.2713 61.1492C73.663 60.6527 73.2793 60.0043 72.8653 59.4315C70.1389 55.6584 66.8727 52.1139 66.2264 47.2512C65.4819 41.6513 66.3444 36.28 69.2295 31.3468C70.2303 29.6348 71.5997 28.3495 73.816 28.5995C74.7208 28.7019 75.5634 28.9702 76.1889 29.8071Z" fill="#03444F"/>
<path fill-rule="evenodd" clip-rule="evenodd" d="M64.5938 106.197C66.0833 106.953 68.6185 106.871 69.8251 106.083C68.0865 105.986 66.4273 105.86 64.5938 106.197ZM80.8516 90.3711C80.9952 95.1806 79.6132 100.007 76.3815 104.25C75.0381 106.013 73.2098 107.117 71.0708 107.595C67.3963 108.415 63.821 108.071 60.3998 106.417C58.4096 105.455 57.1388 103.817 55.8393 102.086C53.4246 98.8696 52.2322 95.1524 51.2293 91.3949C50.0817 87.0965 50.8925 82.9527 52.8738 78.9551C53.5546 77.5809 54.0209 76.1979 55.4336 75.3751C56.5092 74.7486 57.5351 75.0201 58.5678 75.3965C58.8152 75.4868 59.2005 75.7813 59.1802 75.9369C58.892 78.1401 60.7694 79.9804 60.1988 82.2275C59.9779 83.0978 59.8573 83.9953 59.7184 84.8844C59.3326 87.3544 60.677 89.177 63.2138 89.4527C65.6844 89.7211 67.8521 88.9672 69.3755 86.9451C70.6312 85.2796 71.5318 83.3986 72.0131 81.3452C72.4125 79.6411 73.7569 78.7243 75.4944 78.9843C78.3811 79.4161 79.0984 80.1898 79.4085 83.1981C79.4273 83.385 79.4179 83.6184 79.5244 83.7447C81.0453 85.5652 80.5796 87.7925 80.8516 90.3711Z" fill="#03444F"/>
<path fill-rule="evenodd" clip-rule="evenodd" d="M120.602 39.2337C121.592 39.4775 122.581 39.8754 123.495 39.1377C122.518 39.0395 121.542 38.7899 120.602 39.2337ZM118.606 17.7717C120.734 18.4342 119.047 19.6841 119.055 20.6348C119.059 21.1016 118.519 21.6294 119.029 22.1238C119.526 22.6052 120.155 22.5692 120.762 22.3254C123.475 21.2378 124.942 19.0472 125.515 16.3568C125.935 14.3802 126.628 12.4913 127.048 10.5209C127.426 8.75311 129.229 7.817 131.008 8.21954C133.133 8.70038 134.461 9.85994 134.756 12.0981C135.106 14.7587 135.857 17.3279 135.777 20.0908C135.592 26.5162 133.773 32.2868 129.785 37.3474C126.064 42.0676 118.931 42.2728 115.101 37.6074C113.859 36.0939 112.708 34.3574 112.483 32.2487C112.446 31.901 112.213 31.5569 112.017 31.2447C108.744 26.0531 109.082 20.698 111.507 15.3743C113.168 11.7311 116.022 11.9071 118.342 13.6425C118.633 13.8597 119.034 14.1186 118.967 14.5337C118.881 15.0667 118.348 14.802 118.022 14.9127C117.713 15.0182 117.284 15.0318 117.337 15.4714C117.392 15.9308 117.828 15.794 118.141 15.8269C118.711 15.8864 119.309 15.924 119.529 16.5954C119.765 17.319 118.943 17.3211 118.606 17.7717Z" fill="#03444F"/>
<path fill-rule="evenodd" clip-rule="evenodd" d="M19.3736 113.803C19.0624 114.263 19.2587 114.671 19.7223 114.717C20.4506 114.789 19.999 114.247 20.0236 113.939C20.0585 113.499 20.2642 113.778 20.483 113.819C20.9638 113.909 20.9247 113.461 20.7279 113.332C20.401 113.117 19.9489 112.941 19.5767 112.984C19.1381 113.034 19.2571 113.466 19.3736 113.803ZM17.5491 119.564C16.437 119.22 15.1689 120.557 14.4891 118.818C14.486 119.57 14.0448 120.683 14.9188 120.638C15.717 120.598 16.9179 120.667 17.5491 119.564ZM24.2501 115.513C25.0745 116.004 25.2384 114.988 26.1093 115.031C24.9299 115.951 24.2538 116.953 23.7949 118.214C23.4915 119.046 22.2275 119.554 21.4214 119.949C18.5651 121.347 15.4874 122.279 12.2635 122.37C11.2877 122.397 10.3458 121.785 9.32096 121.715C9.00353 121.693 8.7049 121.435 8.72735 121.036C8.73257 120.936 8.90851 120.754 8.98108 120.766C9.57052 120.86 9.98402 120.811 9.69321 120.052C9.56321 119.712 9.61072 119.242 9.15859 119.115C8.3645 118.892 8.98787 120.02 8.3765 119.967C7.79281 120.462 8.55506 118.029 7.49678 119.586C7.42996 119.533 7.33024 119.493 7.30152 119.424C6.67292 117.908 5.19854 117.065 4.37886 115.645C3.59782 114.293 2.59488 113.07 2.00544 111.584C0.232949 107.121 -0.328297 102.528 0.559777 97.8063C1.0213 95.3504 2.58026 94.3501 4.82943 94.7871C5.59951 94.9364 6.19521 95.3217 6.50168 95.9785C7.6602 98.4626 9.40815 100.775 8.50024 103.842C8.21935 104.791 8.75815 105.805 9.43321 106.58C9.85036 107.059 10.3599 107.344 11.0647 106.984C12.4128 106.296 13.7525 105.637 14.7058 104.379C15.3866 103.48 16.1979 102.681 16.9231 101.814C17.9245 100.617 18.1981 99.0969 18.3098 97.6581C18.4805 95.4642 19.8933 94.4357 21.9414 95.3603C22.7742 95.7362 23.585 96.2975 23.9358 97.1187C24.8646 99.2896 25.9203 101.376 26.4215 103.768C26.9112 106.104 27.0506 108.373 26.9316 110.708C26.8799 111.724 26.2278 112.609 26.3181 113.672C26.3348 113.869 25.879 114.276 25.6201 114.295C24.7816 114.358 24.7299 115.104 24.2501 115.513Z" fill="#03444F"/>
<path fill-rule="evenodd" clip-rule="evenodd" d="M107.718 72.6581C106.855 73.5472 106.6 73.6329 106.31 73.0669C105.917 72.3005 104.794 72.0394 104.215 72.5949C103.859 72.9353 103.866 73.3791 104.174 73.6966C104.652 74.1905 107.455 73.3917 107.718 72.6581ZM109.957 83.3041C109.415 82.7929 108.522 83.1516 108.244 82.8013C107.275 81.5801 106.623 83.0832 105.805 82.9887C105.662 82.972 105.113 83.5025 105.27 83.8716C105.431 84.247 106.13 84.5378 106.333 84.3639C107.376 83.469 108.794 83.9984 109.957 83.3041ZM106.928 77.5376C106.352 77.5297 105.681 77.548 105.588 78.3353C105.478 79.262 106.332 78.8438 106.754 79.0454C107.278 79.2965 107.744 78.801 108.178 78.9519C108.652 79.1159 108.94 78.9775 109.112 78.6282C109.361 78.1207 108.894 77.7548 108.685 77.3742C108.464 76.9727 108.095 77.2729 107.829 77.4144C107.555 77.56 107.352 77.9156 106.928 77.5376ZM118.446 62.8355C119.186 63.1498 119.811 63.5362 119.925 64.287C120.014 64.8701 119.334 64.571 119.005 64.9516C120.575 64.9881 120.264 66.3675 120.097 66.9402C119.659 68.4491 120.215 69.8916 120.039 71.366C119.922 72.335 119.699 73.316 119.619 74.2959C119.536 75.3124 118.855 73.9117 118.327 73.9853C118.049 74.2876 118.07 74.605 118.425 74.7851C118.789 74.9705 119.436 74.9329 119.385 75.4466C119.323 76.0705 119.142 77.0275 118.735 77.205C117.639 77.6833 117.893 78.7702 117.961 79.2735C118.106 80.3595 117.61 80.2264 117.033 80.0635C116.199 79.827 115.698 80.0932 115.531 80.9025C115.317 81.9352 114.157 81.7649 113.638 82.4922C113.13 83.2049 112.334 83.7087 112.403 84.7748C110.97 84.603 111.632 83.3406 111.064 82.5742C110.861 85.0776 109.011 85.0343 107.336 85.2207C106.78 85.2833 106.149 85.0693 105.66 85.2593C104.635 85.6571 104.709 85.1611 104.969 84.2261C104.397 85.3402 103.869 85.7198 103.065 84.7936C102.773 84.4579 102.29 84.5091 101.877 84.4166C101.115 84.2459 101.022 84.0684 101.043 83.0884C101.049 82.8123 100.874 82.8405 100.704 82.7627C98.9576 81.9628 98.199 80.5004 98.1859 78.5849C98.1797 77.6728 98.5524 76.2188 96.7523 76.3138C96.5043 76.3263 96.4547 76.1379 96.3748 75.9682C94.7219 72.4509 95.2601 69.0688 97.1193 65.8329C97.9776 64.3397 100.174 63.5968 101.844 64.1836C102.39 64.3757 102.976 64.8957 103.208 65.4157C103.439 65.9321 102.858 66.1383 102.329 66.2062C101.917 66.2589 102.044 66.6123 102.132 66.8833C102.279 67.337 102.586 67.4545 103.019 67.2942C104.074 66.9031 104.311 67.078 104.187 68.3279C104.097 69.2437 105.402 69.6081 106.132 70.1041C106.627 70.4403 106.891 69.7198 107.036 69.3058C107.142 69.0072 107.306 68.7837 107.545 68.6621C109.855 67.4785 110.109 65.2126 110.468 63.0386C110.636 62.019 110.661 60.92 110.859 59.9557C111.059 58.9778 111.368 57.953 111.623 56.9448C112.033 55.3289 113.364 55.2773 114.64 55.3493C115.464 55.3958 116.28 55.6798 117.085 55.9105C117.28 55.9664 117.572 56.2483 117.554 56.3945C117.399 57.6658 118.888 58.5737 118.278 60.0011C118.124 60.3614 118.617 61.0798 118.939 61.547C119.551 62.4335 119.574 62.4617 118.446 62.8355Z" fill="#03444F"/>
<path fill-rule="evenodd" clip-rule="evenodd" d="M56.5476 36.3872C55.3922 36.9098 54.5788 37.5013 54.0938 38.4698C54.8863 37.8553 56.2124 37.8553 56.5476 36.3872ZM52.0415 19.2141C53.116 19.0141 53.6407 18.3751 54.2437 17.8843C55.4127 16.932 56.3681 17.2359 56.7142 18.7682C56.8646 19.4328 56.9017 19.803 57.8054 19.9873C58.6971 20.1695 58.8966 21.4434 59.3012 22.272C60.5485 24.8281 61.0277 27.5748 60.8659 30.3983C60.6503 34.1646 58.7765 36.9897 55.6951 39.09C54.2829 40.0528 52.8309 40.6198 51.0506 40.4104C50.2033 40.3107 49.7151 39.7698 49.062 39.4451C46.8159 38.3299 44.4963 37.364 42.3996 35.9444C40.1436 34.4179 37.518 28.7004 38.6181 25.6692C39.3229 23.7265 40.5117 22.5555 42.4862 22.1446C43.6218 21.9081 44.1413 22.3795 44.2243 23.7688C44.8351 23.3396 45.1306 22.841 45.2993 22.1733C45.695 20.6096 46.2766 19.1138 47.0117 17.6676C47.8836 15.9505 49.3319 15.112 51.1148 14.6917C51.8149 14.5268 52.513 14.6139 52.9385 15.1731C53.352 15.7161 53.3165 16.3723 52.9411 17.0291C52.5944 17.6353 52.3976 18.327 52.0415 19.2141Z" fill="#03444F"/>
<path fill-rule="evenodd" clip-rule="evenodd" d="M84.686 6.75559C85.5683 4.75494 85.9682 2.68955 87.5256 1.23083C87.7642 1.00738 87.972 0.716052 88.2539 0.579787C88.9248 0.255569 89.7769 -0.270698 90.3574 0.229986C90.8607 0.664365 90.7777 1.5822 90.5219 2.32879C90.3982 2.68746 89.9398 3.17979 90.4655 3.44449C90.9103 3.66742 91.1646 3.09156 91.4486 2.79553C91.6125 2.62429 91.7347 2.4118 91.9065 2.25152C92.227 1.95236 92.3821 1.30445 92.9856 1.54356C93.4675 1.7336 93.8925 2.08079 93.9635 2.67232C94.0293 3.22104 94.0246 3.73164 94.8782 3.35991C95.3126 3.17092 95.617 3.73477 95.8524 4.05325C98.454 7.57109 98.9928 11.2106 95.6112 14.7958C94.577 15.8916 93.5145 16.9604 92.4667 18.0432C91.8908 18.6383 91.1912 18.6305 90.4927 18.3825C89.7043 18.1027 90.5543 17.4631 90.2024 16.951C89.4004 18.24 88.6288 18.0687 87.6029 17.1389C86.967 16.563 86.2047 15.8431 85.0081 16.325C84.5675 16.5025 83.729 16.0128 83.2147 15.6342C80.6372 13.7375 79.0855 11.2268 79.0244 7.95952C78.9999 6.6637 79.4254 5.51458 80.7358 4.93088C80.987 4.81915 81.4939 4.69072 81.5132 4.73405C82.1142 6.08574 83.8658 5.5459 84.686 6.75559Z" fill="#03444F"/>
</svg>
