<svg width="38" height="38" viewBox="0 0 38 38" fill="none" xmlns="http://www.w3.org/2000/svg">
<g clip-path="url(#clip0_155_82)">
<rect width="38" height="38" fill="white"/>
<path d="M33.25 0H4.75C2.12665 0 0 2.12665 0 4.75V33.25C0 35.8734 2.12665 38 4.75 38H33.25C35.8734 38 38 35.8734 38 33.25V4.75C38 2.12665 35.8734 0 33.25 0Z" fill="#CBCBCB"/>
<path d="M21.2982 33.8437V20.3016H25.8437L26.5243 15.0245H21.2983V11.6553C21.2983 10.1273 21.7229 9.0859 23.9134 9.0859L26.7082 9.08507V4.36465C26.225 4.2998 24.5664 4.15625 22.636 4.15625C18.6068 4.15625 15.8487 6.61629 15.8487 11.1327V15.0245H11.2915V20.3016H15.8486V33.8438L21.2982 33.8437Z" fill="white"/>
</g>
<defs>
<clipPath id="clip0_155_82">
<rect width="38" height="38" fill="white"/>
</clipPath>
</defs>
</svg>
