<svg width="38" height="38" viewBox="0 0 38 38" fill="none" xmlns="http://www.w3.org/2000/svg">
<g clip-path="url(#clip0_155_90)">
<rect width="38" height="38" fill="white"/>
<path fill-rule="evenodd" clip-rule="evenodd" d="M33.3573 0C35.9197 0 38 2.08035 38 4.64268V33.3573C38 35.9197 35.9197 38 33.3573 38H4.64268C2.08035 38 0 35.9197 0 33.3573V4.64268C0 2.08035 2.08028 0 4.64268 0L33.3573 0ZM19 6.01172C15.4726 6.01172 15.0303 6.02664 13.645 6.08987C12.2625 6.15296 11.3184 6.3725 10.4922 6.69364C9.63805 7.02555 8.91375 7.46967 8.19167 8.19167C7.4696 8.91375 7.02547 9.63812 6.69357 10.4922C6.3725 11.3184 6.15296 12.2625 6.0898 13.645C6.02664 15.0303 6.01172 15.4726 6.01172 19C6.01172 22.5274 6.02664 22.9697 6.0898 24.355C6.15296 25.7375 6.3725 26.6816 6.69357 27.5078C7.02547 28.3619 7.4696 29.0863 8.19167 29.8083C8.91375 30.5304 9.63805 30.9745 10.4922 31.3064C11.3184 31.6275 12.2625 31.847 13.645 31.9101C15.0303 31.9734 15.4726 31.9883 19 31.9883C22.5274 31.9883 22.9697 31.9734 24.355 31.9101C25.7375 31.847 26.6816 31.6275 27.5078 31.3064C28.3619 30.9745 29.0863 30.5304 29.8083 29.8083C30.5304 29.0863 30.9745 28.3619 31.3064 27.5078C31.6275 26.6816 31.847 25.7375 31.9101 24.355C31.9734 22.9697 31.9883 22.5274 31.9883 19C31.9883 15.4726 31.9734 15.0303 31.9101 13.645C31.847 12.2625 31.6275 11.3184 31.3064 10.4922C30.9745 9.63812 30.5304 8.91375 29.8083 8.19167C29.0863 7.46967 28.3619 7.02555 27.5078 6.69364C26.6816 6.3725 25.7375 6.15296 24.355 6.08987C22.9697 6.02664 22.5274 6.01172 19 6.01172ZM19 8.35198C22.468 8.35198 22.8788 8.3652 24.2484 8.42769C25.5147 8.4855 26.2024 8.6971 26.6601 8.87486C27.2664 9.1105 27.699 9.39201 28.1535 9.84645C28.6081 10.301 28.8895 10.7337 29.1251 11.3399C29.303 11.7976 29.5146 12.4853 29.5723 13.7516C29.6348 15.1212 29.6481 15.532 29.6481 19C29.6481 22.468 29.6348 22.8788 29.5723 24.2484C29.5146 25.5147 29.303 26.2024 29.1251 26.6601C28.8895 27.2664 28.6081 27.699 28.1535 28.1535C27.699 28.6081 27.2664 28.8895 26.6601 29.1251C26.2024 29.303 25.5147 29.5146 24.2484 29.5723C22.879 29.6348 22.4682 29.6481 19 29.6481C15.5318 29.6481 15.121 29.6348 13.7516 29.5723C12.4853 29.5146 11.7976 29.303 11.3399 29.1251C10.7336 28.8895 10.301 28.6081 9.84645 28.1535C9.39194 27.699 9.11043 27.2664 8.87486 26.6601C8.69703 26.2024 8.48543 25.5147 8.42761 24.2484C8.36512 22.8788 8.35191 22.468 8.35191 19C8.35191 15.532 8.36512 15.1212 8.42761 13.7516C8.48543 12.4853 8.69703 11.7976 8.87486 11.3399C9.11043 10.7337 9.39194 10.301 9.84645 9.84645C10.301 9.39201 10.7336 9.1105 11.3399 8.87486C11.7976 8.6971 12.4853 8.4855 13.7516 8.42769C15.1212 8.3652 15.532 8.35198 19 8.35198ZM19 12.3303C15.3164 12.3303 12.3303 15.3164 12.3303 19C12.3303 22.6835 15.3164 25.6697 19 25.6697C22.6835 25.6697 25.6697 22.6835 25.6697 19C25.6697 15.3164 22.6835 12.3303 19 12.3303ZM19 23.3294C16.6089 23.3294 14.6706 21.3911 14.6706 19C14.6706 16.6089 16.6089 14.6706 19 14.6706C21.3911 14.6706 23.3294 16.6089 23.3294 19C23.3294 21.3911 21.3911 23.3294 19 23.3294ZM27.4918 12.0669C27.4918 12.9276 26.7939 13.6254 25.9331 13.6254C25.0724 13.6254 24.3746 12.9276 24.3746 12.0669C24.3746 11.2061 25.0724 10.5083 25.9331 10.5083C26.7939 10.5083 27.4918 11.2061 27.4918 12.0669Z" fill="#CBCBCB"/>
</g>
<defs>
<clipPath id="clip0_155_90">
<rect width="38" height="38" fill="white"/>
</clipPath>
</defs>
</svg>
