<svg width="223" height="26" viewBox="0 0 223 26" fill="none" xmlns="http://www.w3.org/2000/svg">
<path d="M0.43892 25V0.272727H4.91832V21.245H15.8089V25H0.43892ZM24.8402 25.3743C23.665 25.3743 22.6065 25.165 21.6648 24.7464C20.7311 24.3198 19.9905 23.692 19.4432 22.8629C18.9039 22.0339 18.6342 21.0116 18.6342 19.7962C18.6342 18.7498 18.8274 17.8845 19.2138 17.2003C19.6001 16.5161 20.1274 15.9688 20.7955 15.5582C21.4635 15.1477 22.2161 14.8378 23.0533 14.6286C23.8984 14.4112 24.7718 14.2543 25.6733 14.1577C26.7599 14.045 27.6413 13.9444 28.3175 13.8558C28.9936 13.7592 29.4846 13.6143 29.7905 13.4212C30.1044 13.2199 30.2614 12.91 30.2614 12.4915V12.419C30.2614 11.5095 29.9917 10.8052 29.4524 10.3061C28.9131 9.80705 28.1364 9.55753 27.1222 9.55753C26.0516 9.55753 25.2024 9.79096 24.5746 10.2578C23.9548 10.7247 23.5362 11.276 23.3189 11.9119L19.2379 11.3324C19.5599 10.2055 20.0911 9.26373 20.8317 8.5071C21.5722 7.74242 22.4777 7.17093 23.5483 6.79261C24.6188 6.40625 25.8021 6.21307 27.098 6.21307C27.9915 6.21307 28.8809 6.31771 29.7663 6.52699C30.6518 6.73627 31.4607 7.08239 32.1932 7.56534C32.9257 8.04025 33.5133 8.68821 33.956 9.50923C34.4067 10.3303 34.6321 11.3565 34.6321 12.5881V25H30.4304V22.4524H30.2855C30.0199 22.9676 29.6456 23.4505 29.1626 23.9013C28.6877 24.344 28.0881 24.7022 27.3636 24.9759C26.6473 25.2415 25.8061 25.3743 24.8402 25.3743ZM25.9751 22.1626C26.8525 22.1626 27.6132 21.9896 28.2571 21.6435C28.901 21.2893 29.3961 20.8224 29.7422 20.2429C30.0964 19.6634 30.2734 19.0315 30.2734 18.3473V16.1619C30.1366 16.2746 29.9032 16.3793 29.5732 16.4759C29.2512 16.5724 28.889 16.657 28.4865 16.7294C28.084 16.8018 27.6856 16.8662 27.2912 16.9226C26.8968 16.9789 26.5547 17.0272 26.2649 17.0675C25.6129 17.156 25.0294 17.3009 24.5142 17.5021C23.9991 17.7034 23.5926 17.9851 23.2947 18.3473C22.9969 18.7015 22.848 19.1603 22.848 19.7237C22.848 20.5286 23.1418 21.1364 23.7294 21.5469C24.317 21.9574 25.0656 22.1626 25.9751 22.1626ZM50.8473 17.2003V6.45454H55.218V25H50.9801V21.7038H50.7869C50.3684 22.7422 49.6802 23.5914 48.7223 24.2514C47.7725 24.9115 46.6013 25.2415 45.2088 25.2415C43.9934 25.2415 42.9188 24.9718 41.9851 24.4325C41.0594 23.8852 40.335 23.0923 39.8118 22.054C39.2886 21.0076 39.027 19.7438 39.027 18.2628V6.45454H43.3977V17.5866C43.3977 18.7618 43.7197 19.6955 44.3636 20.3878C45.0076 21.08 45.8527 21.4261 46.8991 21.4261C47.5431 21.4261 48.1669 21.2692 48.7706 20.9553C49.3743 20.6413 49.8693 20.1745 50.2557 19.5547C50.6501 18.9268 50.8473 18.142 50.8473 17.2003ZM64.0833 14.1335V25H59.7125V6.45454H63.8901V9.60582H64.1074C64.534 8.56747 65.2142 7.74242 66.1479 7.13068C67.0897 6.51894 68.2528 6.21307 69.6373 6.21307C70.9171 6.21307 72.0319 6.48674 72.9817 7.03409C73.9396 7.58144 74.6801 8.37429 75.2033 9.41264C75.7346 10.451 75.9962 11.7107 75.9881 13.1918V25H71.6174V13.8679C71.6174 12.6283 71.2954 11.6584 70.6515 10.9581C70.0156 10.2578 69.1342 9.90767 68.0073 9.90767C67.2426 9.90767 66.5624 10.0767 65.9668 10.4148C65.3792 10.7448 64.9164 11.2237 64.5783 11.8516C64.2483 12.4794 64.0833 13.2401 64.0833 14.1335ZM87.3134 25.326C85.8565 25.326 84.5525 24.9517 83.4015 24.2031C82.2504 23.4545 81.3409 22.3679 80.6728 20.9432C80.0047 19.5185 79.6706 17.7879 79.6706 15.7514C79.6706 13.6908 80.0087 11.9522 80.6848 10.5355C81.369 9.1108 82.2907 8.03622 83.4498 7.31179C84.6088 6.57931 85.9007 6.21307 87.3255 6.21307C88.4121 6.21307 89.3056 6.3982 90.0059 6.76846C90.7061 7.13068 91.2615 7.56936 91.6721 8.08452C92.0826 8.59162 92.4005 9.07055 92.6259 9.52131H92.807V0.272727H97.1898V25H92.8915V22.0781H92.6259C92.4005 22.5289 92.0745 23.0078 91.6479 23.5149C91.2213 24.014 90.6578 24.4406 89.9576 24.7947C89.2573 25.1489 88.3759 25.326 87.3134 25.326ZM88.5328 21.7401C89.4585 21.7401 90.2473 21.4905 90.8993 20.9915C91.5513 20.4844 92.0463 19.7801 92.3844 18.8786C92.7225 17.977 92.8915 16.9266 92.8915 15.7273C92.8915 14.5279 92.7225 13.4856 92.3844 12.6001C92.0544 11.7147 91.5634 11.0265 90.9114 10.5355C90.2675 10.0445 89.4746 9.799 88.5328 9.799C87.5589 9.799 86.7459 10.0526 86.0939 10.5597C85.4419 11.0668 84.9509 11.767 84.6209 12.6605C84.2909 13.554 84.1259 14.5762 84.1259 15.7273C84.1259 16.8864 84.2909 17.9207 84.6209 18.8303C84.959 19.7318 85.454 20.4441 86.106 20.9673C86.766 21.4825 87.575 21.7401 88.5328 21.7401ZM101.847 25V6.45454H106.085V9.54545H106.278C106.616 8.47491 107.196 7.64986 108.017 7.07031C108.846 6.48272 109.792 6.18892 110.854 6.18892C111.096 6.18892 111.366 6.20099 111.663 6.22514C111.969 6.24124 112.223 6.26941 112.424 6.30966V10.3303C112.239 10.2659 111.945 10.2095 111.543 10.1612C111.148 10.1049 110.766 10.0767 110.396 10.0767C109.599 10.0767 108.882 10.2498 108.246 10.5959C107.619 10.9339 107.124 11.4048 106.761 12.0085C106.399 12.6122 106.218 13.3085 106.218 14.0973V25H101.847ZM120.332 25.3743C119.157 25.3743 118.099 25.165 117.157 24.7464C116.223 24.3198 115.483 23.692 114.935 22.8629C114.396 22.0339 114.126 21.0116 114.126 19.7962C114.126 18.7498 114.32 17.8845 114.706 17.2003C115.092 16.5161 115.62 15.9688 116.288 15.5582C116.956 15.1477 117.708 14.8378 118.545 14.6286C119.391 14.4112 120.264 14.2543 121.165 14.1577C122.252 14.045 123.134 13.9444 123.81 13.8558C124.486 13.7592 124.977 13.6143 125.283 13.4212C125.597 13.2199 125.754 12.91 125.754 12.4915V12.419C125.754 11.5095 125.484 10.8052 124.945 10.3061C124.405 9.80705 123.629 9.55753 122.614 9.55753C121.544 9.55753 120.695 9.79096 120.067 10.2578C119.447 10.7247 119.028 11.276 118.811 11.9119L114.73 11.3324C115.052 10.2055 115.583 9.26373 116.324 8.5071C117.064 7.74242 117.97 7.17093 119.04 6.79261C120.111 6.40625 121.294 6.21307 122.59 6.21307C123.484 6.21307 124.373 6.31771 125.259 6.52699C126.144 6.73627 126.953 7.08239 127.685 7.56534C128.418 8.04025 129.005 8.68821 129.448 9.50923C129.899 10.3303 130.124 11.3565 130.124 12.5881V25H125.923V22.4524H125.778C125.512 22.9676 125.138 23.4505 124.655 23.9013C124.18 24.344 123.58 24.7022 122.856 24.9759C122.139 25.2415 121.298 25.3743 120.332 25.3743ZM121.467 22.1626C122.345 22.1626 123.105 21.9896 123.749 21.6435C124.393 21.2893 124.888 20.8224 125.234 20.2429C125.589 19.6634 125.766 19.0315 125.766 18.3473V16.1619C125.629 16.2746 125.395 16.3793 125.065 16.4759C124.743 16.5724 124.381 16.657 123.979 16.7294C123.576 16.8018 123.178 16.8662 122.783 16.9226C122.389 16.9789 122.047 17.0272 121.757 17.0675C121.105 17.156 120.522 17.3009 120.006 17.5021C119.491 17.7034 119.085 17.9851 118.787 18.3473C118.489 18.7015 118.34 19.1603 118.34 19.7237C118.34 20.5286 118.634 21.1364 119.222 21.5469C119.809 21.9574 120.558 22.1626 121.467 22.1626ZM134.519 25V6.45454H138.697V9.60582H138.914C139.3 8.54332 139.94 7.71425 140.834 7.11861C141.727 6.51491 142.794 6.21307 144.033 6.21307C145.289 6.21307 146.348 6.51894 147.209 7.13068C148.078 7.73437 148.69 8.55942 149.044 9.60582H149.237C149.648 8.57552 150.34 7.7545 151.314 7.14276C152.296 6.52296 153.459 6.21307 154.803 6.21307C156.51 6.21307 157.902 6.75237 158.981 7.83096C160.059 8.90956 160.599 10.4832 160.599 12.5518V25H156.216V13.228C156.216 12.0769 155.91 11.2358 155.298 10.7045C154.687 10.1652 153.938 9.8956 153.053 9.8956C151.998 9.8956 151.173 10.2256 150.577 10.8857C149.99 11.5376 149.696 12.3868 149.696 13.4332V25H145.41V13.0469C145.41 12.089 145.12 11.3243 144.54 10.7528C143.969 10.1813 143.22 9.8956 142.295 9.8956C141.667 9.8956 141.095 10.0566 140.58 10.3786C140.065 10.6925 139.655 11.1392 139.349 11.7188C139.043 12.2902 138.89 12.9583 138.89 13.723V25H134.519ZM173.122 25.3622C171.311 25.3622 169.742 24.9638 168.414 24.1669C167.085 23.37 166.055 22.2552 165.323 20.8224C164.598 19.3897 164.236 17.7154 164.236 15.7997C164.236 13.884 164.598 12.2057 165.323 10.7649C166.055 9.3241 167.085 8.20526 168.414 7.40838C169.742 6.61151 171.311 6.21307 173.122 6.21307C174.933 6.21307 176.503 6.61151 177.831 7.40838C179.159 8.20526 180.186 9.3241 180.91 10.7649C181.642 12.2057 182.009 13.884 182.009 15.7997C182.009 17.7154 181.642 19.3897 180.91 20.8224C180.186 22.2552 179.159 23.37 177.831 24.1669C176.503 24.9638 174.933 25.3622 173.122 25.3622ZM173.146 21.8608C174.128 21.8608 174.95 21.5911 175.61 21.0518C176.27 20.5045 176.761 19.772 177.083 18.8544C177.413 17.9368 177.578 16.9145 177.578 15.7876C177.578 14.6527 177.413 13.6264 177.083 12.7088C176.761 11.7831 176.27 11.0466 175.61 10.4993C174.95 9.95194 174.128 9.67827 173.146 9.67827C172.14 9.67827 171.303 9.95194 170.635 10.4993C169.975 11.0466 169.48 11.7831 169.15 12.7088C168.828 13.6264 168.667 14.6527 168.667 15.7876C168.667 16.9145 168.828 17.9368 169.15 18.8544C169.48 19.772 169.975 20.5045 170.635 21.0518C171.303 21.5911 172.14 21.8608 173.146 21.8608ZM193.808 25.3622C191.997 25.3622 190.427 24.9638 189.099 24.1669C187.771 23.37 186.741 22.2552 186.008 20.8224C185.284 19.3897 184.922 17.7154 184.922 15.7997C184.922 13.884 185.284 12.2057 186.008 10.7649C186.741 9.3241 187.771 8.20526 189.099 7.40838C190.427 6.61151 191.997 6.21307 193.808 6.21307C195.619 6.21307 197.189 6.61151 198.517 7.40838C199.845 8.20526 200.871 9.3241 201.596 10.7649C202.328 12.2057 202.694 13.884 202.694 15.7997C202.694 17.7154 202.328 19.3897 201.596 20.8224C200.871 22.2552 199.845 23.37 198.517 24.1669C197.189 24.9638 195.619 25.3622 193.808 25.3622ZM193.832 21.8608C194.814 21.8608 195.635 21.5911 196.295 21.0518C196.955 20.5045 197.446 19.772 197.768 18.8544C198.098 17.9368 198.263 16.9145 198.263 15.7876C198.263 14.6527 198.098 13.6264 197.768 12.7088C197.446 11.7831 196.955 11.0466 196.295 10.4993C195.635 9.95194 194.814 9.67827 193.832 9.67827C192.826 9.67827 191.989 9.95194 191.321 10.4993C190.661 11.0466 190.166 11.7831 189.836 12.7088C189.514 13.6264 189.353 14.6527 189.353 15.7876C189.353 16.9145 189.514 17.9368 189.836 18.8544C190.166 19.772 190.661 20.5045 191.321 21.0518C191.989 21.5911 192.826 21.8608 193.832 21.8608ZM210.775 14.1335V25H206.404V6.45454H210.581V9.60582H210.799C211.225 8.56747 211.906 7.74242 212.839 7.13068C213.781 6.51894 214.944 6.21307 216.329 6.21307C217.608 6.21307 218.723 6.48674 219.673 7.03409C220.631 7.58144 221.372 8.37429 221.895 9.41264C222.426 10.451 222.688 11.7107 222.68 13.1918V25H218.309V13.8679C218.309 12.6283 217.987 11.6584 217.343 10.9581C216.707 10.2578 215.826 9.90767 214.699 9.90767C213.934 9.90767 213.254 10.0767 212.658 10.4148C212.071 10.7448 211.608 11.2237 211.27 11.8516C210.94 12.4794 210.775 13.2401 210.775 14.1335Z" fill="white"/>
</svg>
