 <svg
    width="314"
    height="396"
    viewBox="0 0 314 396"
    fill="none"
    xmlns="http://www.w3.org/2000/svg"
  >
    <path
      d="M0.300548 52.7018C3.64069 54.6199 8.03434 54.8323 11.8324 54.4779C15.6765 54.1799 19.353 53.2855 23.0009 52.2641C30.3602 50.2069 37.7747 47.5032 47.5582 45.9683C67.2455 42.838 82.4575 54.1319 88.9508 58.177C91.9124 60.0468 96.6028 63.0627 100.461 65.7985C101.34 66.4351 102.173 67.0153 102.966 67.5709C97.1461 59.5361 90.4287 54.9407 83.5789 51.2428C76.0596 47.095 68.101 44.1139 59.4036 36.9605C53.6088 32.1574 49.658 26.3385 47.8697 21.0673C45.9859 15.8177 46.2932 11.2429 47.2301 8.12837C48.0644 5.00357 49.8529 2.99898 50.9643 1.84766C52.1712 0.674855 53.0439 0.244777 53.0439 0.244777C53.9313 7.4542 58.4624 11.8409 63.3676 14.4747C68.397 17.214 74.0104 18.687 80.7497 22.0427C87.5136 25.3594 92.1008 31.0351 95.0821 36.7051C98.0705 42.407 99.3362 48.0294 100.32 51.2121C101.169 54.0915 102.379 58.7252 103.202 62.6784C103.632 64.8845 104.012 66.8683 104.273 68.1778C115.534 70.6824 126.715 73.5721 137.776 76.8225C133.443 70.7893 128.803 66.6608 123.944 62.7483C117.955 57.8222 111.502 53.0671 106.226 44.7763C99.3366 33.4779 100.541 24.1287 103.073 19.1868C105.664 14.0646 109.186 12.3371 109.186 12.3371C110.184 18.5537 113.565 22.7321 117.503 26.1176C121.48 29.5277 125.957 32.191 130.498 36.1751C135.063 40.1202 136.986 45.3945 138.021 50.735C139.042 56.0121 139.051 61.2499 139.352 64.2193C139.653 67.4889 140.227 73.6009 140.612 77.6861C142.513 78.2595 144.413 78.8328 146.321 79.4379C148.986 79.8394 152.164 80.5924 154.575 81.6516C155.694 82.1673 156.64 82.6553 157.419 83.1474C159.632 83.9175 161.844 84.6877 164.032 85.4968C168.925 87.3324 173.776 89.2775 178.648 91.318C174.537 86.5697 170.761 83.0142 166.774 79.7065C163.928 77.3101 161.039 75.0233 158.274 72.5419C155.449 69.9406 152.925 67.6385 149.969 63.5648C146.544 58.5954 145.293 54.972 144.617 51.8201C143.987 48.7245 144.009 46.1497 144.028 43.7091C144.09 41.4591 144.12 39.2162 144.137 37.5102C144.176 35.8996 144.286 34.9068 144.286 34.9068C150.17 38.3216 154.542 41.409 159.434 44.2794C161.726 45.6992 164.251 47.2667 166.621 48.7356C167.836 49.5301 169.006 50.2682 170.065 50.9642C171.156 51.6531 172.247 52.3419 173.573 53.4786C178.531 57.5356 180.294 62.8457 181.05 67.9822C181.766 73.0942 181.559 78.1137 181.781 81.0339C181.965 83.6293 182.36 87.9123 182.967 91.6472C183.057 92.1944 183.147 92.7415 183.229 93.2569C195.601 98.6154 207.688 104.639 219.295 111.504C213.945 101.695 208.933 94.5795 203.813 87.7222C198.149 80.0861 192.472 72.6867 188.08 62.8286C187.336 61.1603 186.71 59.5658 186.115 57.9642C185.503 56.133 185.096 54.6226 184.767 53.1614C184.116 50.2708 183.834 47.8311 183.751 45.6804C183.554 41.3862 183.995 38.1496 184.498 35.3331C185.007 32.5484 185.553 30.2227 186.013 28.5507C186.447 26.9176 186.866 25.9556 186.866 25.9556C192.311 32.4728 196 38.0171 200.416 43.2306C202.576 45.8481 204.74 48.3314 206.971 50.6662C209.283 53.2161 211.674 56.1155 213.984 59.4C218.613 66.001 219.889 72.856 220.268 79.1452C220.577 85.4169 219.996 91.1545 220.033 94.5839C220.079 97.6106 220.116 102.675 220.455 107.004C220.588 109.077 220.773 110.938 220.896 112.379C227.042 116.068 233.065 119.952 238.89 124.148C243.698 127.537 248.39 131.154 252.951 134.933C249.583 111.061 238.785 99.7742 231.239 79.9129C225.921 66.0914 225.824 56.6014 227.131 50.2328C228.382 43.9104 231.145 40.8855 231.145 40.8855C237.864 56.6277 248.49 62.8462 257.499 78.8073C266.388 94.8288 260.322 111.246 258.698 118.287C257.616 122.836 255.32 131.496 254.138 135.901C263.399 143.628 272.058 152.092 279.971 161.257C281.896 151.245 280.275 142.265 278.271 133.805C276.008 123.902 272.542 114.002 273.03 100.576C273.564 84.2355 278.627 74.6518 283.082 69.6439C287.587 64.5581 291.596 63.6556 291.596 63.6556C289.908 72.3459 290.916 79.4948 292.535 86.5395C293.425 90.044 294.378 93.8343 295.274 97.3705C296.235 101.193 296.991 105.294 297.899 109.028C299.67 117.34 298.734 125.361 296.699 132.36C294.696 139.353 291.587 144.992 289.925 148.303C288.461 151.303 285.841 155.998 283.387 159.654C282.616 160.829 281.879 161.862 281.216 162.779C287.087 169.701 292.53 176.953 297.395 184.602C299.475 187.905 301.468 191.261 303.34 194.678C303.486 187.903 304.01 181.912 304.523 176.323C305.301 168.938 306.049 162.162 307.077 155.589C308.041 149.031 309.21 142.493 310.86 136.014C312.352 129.871 313.995 123.36 316.716 116.14C320.308 106.554 324.902 99.0446 329.703 93.7919C334.505 88.5392 339.322 85.5857 343.203 84.1115C347.154 82.6547 350.107 82.5572 352.071 82.816C353.995 83.0502 354.927 83.4747 354.927 83.4747C346.457 89.9538 343.233 98.3556 341.353 106.488C339.446 114.794 338.946 123.417 336.617 134.455C334.102 146.001 329.264 153.765 324.817 160.74C320.349 167.62 315.934 173.253 313.714 177.057C311.727 180.408 308.625 186.079 306.583 191.412C305.767 193.431 305.103 195.382 304.605 197.03C309.035 205.277 312.841 213.866 315.841 222.736C317.201 226.701 318.403 230.703 319.477 234.733C319.508 234.426 319.515 234.157 319.546 233.85C320.076 227.89 320.837 222.212 322.079 216.592C323.244 210.923 324.772 205.239 327.05 199.32C329.328 193.4 332.245 187.203 336.64 180.74C340.972 174.292 346.71 168.895 352.424 165.172C358.252 161.357 364.068 158.98 369.437 157.438C380.253 154.402 389.147 154.703 394.389 154.824C399.079 154.87 406.53 155.595 412.222 157.118C417.994 158.555 421.678 160.663 421.678 160.663C413.546 159.289 404.852 160.913 397.551 163.524C390.154 166.157 383.619 169.798 377.839 173.969C366.031 182.401 358.089 192.266 349.003 205.959C337.12 224.153 331.278 235.18 326.832 242.456C325.131 245.442 323.651 247.777 322.541 249.529C323.317 254.461 323.806 259.457 323.914 264.539C323.941 265.701 323.017 266.643 321.853 266.672C320.69 266.7 319.747 265.778 319.719 264.616L319.708 264.418C319.625 260.632 319.336 256.825 318.849 253.03C318.484 252.745 318.119 252.46 317.793 252.2C317.028 251.771 316.27 251.375 315.59 251.027C314.17 250.212 312.644 249.521 311.012 248.954C309.412 248.38 307.9 247.752 306.233 247.326C299.766 245.478 293.379 244.58 287.071 244.03C274.416 242.908 261.976 243.038 246.974 240.842C226.932 237.944 215.295 231.987 209.033 226.888C202.773 221.656 201.716 217.555 201.716 217.555C223.77 223.003 237.599 217.02 261.325 217.72C285.244 218.243 301.96 232.502 308.638 238.408C311.307 240.611 315.213 244.303 318.08 247.83C316.73 239.757 314.621 231.721 312.045 223.991C311.499 222.311 310.891 220.646 310.282 218.981C307.497 215.669 303.809 213.096 299.702 211.484C293.467 208.882 286.779 207.985 280.122 207.815C273.323 207.61 266.979 208.237 258.89 208.389C251.752 208.461 244.42 208.709 236.093 208.548C213.883 208.341 199.61 203.745 192.178 198.943C188.398 196.557 186.189 194.317 184.876 192.643C183.603 190.994 183.239 189.975 183.239 189.975C195.491 192.423 205.466 191.146 215.359 189.353C225.315 187.545 235.315 184.894 248.874 183.944C252.266 183.714 255.587 183.768 258.753 184.023C260.42 184.148 261.722 184.289 263.031 184.462C264.474 184.637 265.854 184.827 267.312 185.066C273.073 186.006 278.644 187.588 283.445 189.611C293.19 193.692 299.698 199.436 303.126 202.936C303.25 203.042 303.343 203.155 303.467 203.26C300.637 197.523 297.543 191.945 294.184 186.527C290.892 181.26 287.279 176.199 283.49 171.245C271.973 166.863 260.75 167.053 250.403 168.014C238.096 169.182 226.257 171.981 210.623 172.029C201.667 172.043 193.202 171.712 186.531 170.144C179.778 168.66 174.693 166.267 171.305 163.692C167.879 161.093 166.207 158.565 165.459 156.731C164.712 154.897 164.72 153.894 164.72 153.894C169.416 156.041 174.326 156.471 178.835 156.156C183.384 155.867 187.647 154.907 191.931 153.742C196.215 152.578 200.545 151.169 205.455 149.964C207.852 149.324 210.758 148.87 213.152 148.365C215.584 147.884 218.215 147.392 221.026 146.959C232.294 145.19 242.835 146.722 251.423 149.528C260.003 152.302 266.44 156.393 270.231 158.677C272.072 159.731 274.418 161.239 276.813 162.969C267.97 152.645 258.078 143.157 247.461 134.6C243.242 132.046 237.662 131.166 232.431 131.542C226.09 132.035 220.138 133.809 214.385 136.172C211.502 137.322 208.661 138.662 205.686 139.999L200.951 142.133C199.361 142.792 197.771 143.45 196.213 144.101C189.902 146.656 183.06 149.231 174.993 151.114C164.26 153.63 154.657 153.589 147.186 152.034C139.676 150.454 134.42 147.298 131.148 144.497C129.531 142.958 128.347 141.556 127.466 140.319C126.628 138.973 126.102 137.823 125.76 136.899C125.07 135.018 125.078 134.015 125.078 134.015C134.994 139.159 144.425 138.137 152.636 135.555C161.037 132.929 168.812 128.709 179.466 124.208C184.741 121.953 190.309 120.399 195.17 119.572C199.979 118.656 205.389 118.039 210.094 118.148C218.572 118.242 225.464 120.195 229.921 121.728C220.266 115.224 210.186 109.35 199.798 104.045C190.577 103.918 182.91 107.58 176.147 111.839C168.161 116.907 159.501 123.73 147.038 127.47C138.75 130.003 131.584 130.248 126.033 129.495C120.442 128.718 116.427 126.918 113.543 125.098C110.996 123.435 109.375 121.731 108.325 120.332C106.851 120.764 105.419 121.086 103.991 121.274C98.577 122.025 94.2449 120.898 91.4503 119.324C88.6167 117.726 87.1123 115.795 86.2529 114.353C85.4252 112.904 85.2107 111.951 85.2107 111.951C92.124 112.665 97.0037 109.096 100.34 104.908C103.732 100.673 106.376 95.3388 111.177 89.7859C115.249 84.5637 121.979 81.0462 128.23 79.7059C131.125 79.0541 133.876 78.8019 136.345 78.7801C129.598 76.7278 122.792 74.8558 115.943 73.0934C108.137 74.6504 102.623 79.2625 97.821 84.215C92.4047 89.7063 87.3413 96.3196 77.821 101.4C71.4762 104.697 65.4836 105.846 60.7217 105.483C56.0027 105.31 52.4581 103.672 50.0349 102.115C45.1418 98.6437 44.0364 94.921 44.0364 94.921C50.6722 94.9958 55.6352 92.2432 59.6026 88.7802C63.6512 85.2322 66.6262 80.9246 71.0193 76.5314C75.3735 72.1136 81.2471 69.9904 87.1308 69.0998C91.0768 68.5119 94.8405 68.5991 97.8192 68.7629C96.2373 68.4182 94.6871 68.0662 93.1052 67.7215C85.4451 66.8093 78.5483 67.0602 71.8399 67.7026C61.238 68.7209 51.1585 70.7229 38.5524 70.8574C21.8295 71.1176 10.8367 66.984 4.99902 61.9903C2.10682 59.5375 0.615314 57.0698 0.239538 55.252C0.0729019 53.6208 0.300548 52.7018 0.300548 52.7018ZM128.348 112.754C134.477 109.538 140.024 105.519 147.159 101.277C150.723 99.1394 154.31 97.6979 157.989 96.6693C161.701 95.6335 165.608 95.021 169.283 94.8613C174.376 94.6159 178.933 95.2587 182.436 95.9719C182.344 95.8592 182.245 95.7147 182.153 95.602C175.913 92.8346 169.583 90.2547 163.217 87.8162C160.481 86.7969 157.719 85.8166 154.958 84.8362C152.766 85.1962 150.546 86.0295 148.614 87.0986C145.167 89.0094 142.294 91.692 139.662 94.554C137.005 97.4548 134.597 100.567 131.797 103.867C130.333 105.532 128.901 107.189 126.967 108.993C125.064 110.789 123.434 112.158 121.322 113.768C119.726 114.995 118.095 116.063 116.435 117.004C120.734 116.203 124.663 114.651 128.348 112.754Z"
      fill="white"
    />
    <path
      d="M224.722 327.983C224.16 327.032 222.933 326.716 221.983 327.278C221.032 327.84 220.716 329.067 221.278 330.017L224.722 327.983ZM239.5 336.5L240.394 338.289C240.497 338.238 240.594 338.178 240.686 338.11L239.5 336.5ZM313.5 334L311.836 332.891L313.5 334ZM354.252 331.464C354.785 330.496 354.432 329.28 353.464 328.748C352.496 328.215 351.28 328.568 350.748 329.536L354.252 331.464ZM221.278 330.017C222.444 331.991 224.753 335.14 227.948 337.285C231.22 339.483 235.578 340.697 240.394 338.289L238.606 334.711C235.422 336.303 232.613 335.6 230.177 333.965C227.663 332.276 225.723 329.676 224.722 327.983L221.278 330.017ZM240.686 338.11C245.436 334.61 249.198 332.406 252.77 331.919C256.145 331.459 259.708 332.501 264.166 336.49L266.834 333.51C261.792 328.999 257.105 327.291 252.23 327.956C247.552 328.594 243.064 331.39 238.314 334.89L240.686 338.11ZM264.166 336.49C266.781 338.83 269.279 339.875 271.773 339.64C274.173 339.414 276.093 338.033 277.627 336.695C278.406 336.016 279.177 335.262 279.884 334.586C280.613 333.89 281.299 333.253 281.997 332.703C283.394 331.6 284.648 331 286 331V327C283.352 327 281.231 328.212 279.519 329.563C278.662 330.239 277.86 330.989 277.122 331.693C276.362 332.418 275.688 333.078 274.998 333.68C273.594 334.905 272.483 335.555 271.398 335.657C270.408 335.75 268.969 335.42 266.834 333.51L264.166 336.49ZM286 331C289.174 331 290.804 332.39 292.541 334.243C294.215 336.028 296.348 338.836 300.171 339.473L300.829 335.527C298.652 335.164 297.535 333.722 295.459 331.507C293.446 329.36 290.826 327 286 327V331ZM300.171 339.473C303.175 339.973 306.004 340.291 308.528 339.771C311.205 339.22 313.393 337.766 315.164 335.109L311.836 332.891C310.607 334.734 309.295 335.53 307.722 335.854C305.996 336.209 303.825 336.027 300.829 335.527L300.171 339.473ZM315.164 335.109C316.551 333.029 317.533 332.154 318.642 331.681C319.851 331.164 321.477 331 324.5 331L324.5 327C321.523 327 319.123 327.125 317.07 328.003C314.915 328.923 313.397 330.549 311.836 332.891L315.164 335.109ZM324.5 331C325.443 331 326.382 331.367 327.395 332.103C328.426 332.851 329.411 333.891 330.427 335.061C331.379 336.157 332.447 337.48 333.44 338.448C334.377 339.361 335.762 340.5 337.5 340.5V336.5C337.525 336.5 337.438 336.509 337.195 336.367C336.948 336.222 336.631 335.973 336.232 335.583C335.397 334.77 334.559 333.718 333.448 332.439C332.402 331.234 331.168 329.899 329.745 328.866C328.306 327.821 326.557 327 324.5 327L324.5 331ZM337.5 340.5C337.858 340.5 338.266 340.526 338.786 340.562C339.285 340.596 339.872 340.639 340.492 340.656C341.745 340.69 343.218 340.625 344.799 340.173C348.059 339.242 351.314 336.807 354.252 331.464L350.748 329.536C348.186 334.193 345.691 335.758 343.701 336.327C342.657 336.625 341.63 336.685 340.602 336.657C340.081 336.643 339.582 336.607 339.061 336.571C338.562 336.537 338.017 336.5 337.5 336.5V340.5Z"
      fill="black"
    />
    <path
      d="M224.722 356.483C224.16 355.532 222.933 355.216 221.983 355.778C221.032 356.34 220.716 357.567 221.278 358.517L224.722 356.483ZM239.5 365L240.394 366.789C240.497 366.738 240.594 366.678 240.686 366.61L239.5 365ZM313.5 362.5L311.836 361.391L313.5 362.5ZM354.252 359.964C354.785 358.996 354.432 357.78 353.464 357.248C352.496 356.715 351.28 357.068 350.748 358.036L354.252 359.964ZM221.278 358.517C222.444 360.491 224.753 363.64 227.948 365.785C231.22 367.983 235.578 369.197 240.394 366.789L238.606 363.211C235.422 364.803 232.613 364.1 230.177 362.465C227.663 360.776 225.723 358.176 224.722 356.483L221.278 358.517ZM240.686 366.61C245.436 363.11 249.198 360.906 252.77 360.419C256.145 359.959 259.708 361.001 264.166 364.99L266.834 362.01C261.792 357.499 257.105 355.791 252.23 356.456C247.552 357.094 243.064 359.89 238.314 363.39L240.686 366.61ZM264.166 364.99C266.781 367.33 269.279 368.375 271.773 368.14C274.173 367.914 276.093 366.533 277.627 365.195C278.406 364.516 279.177 363.762 279.884 363.086C280.613 362.39 281.299 361.753 281.997 361.203C283.394 360.1 284.648 359.5 286 359.5V355.5C283.352 355.5 281.231 356.712 279.519 358.063C278.662 358.739 277.86 359.489 277.122 360.193C276.362 360.918 275.688 361.578 274.998 362.18C273.594 363.405 272.483 364.055 271.398 364.157C270.408 364.25 268.969 363.92 266.834 362.01L264.166 364.99ZM286 359.5C289.174 359.5 290.804 360.89 292.541 362.743C294.215 364.528 296.348 367.336 300.171 367.973L300.829 364.027C298.652 363.664 297.535 362.222 295.459 360.007C293.446 357.86 290.826 355.5 286 355.5V359.5ZM300.171 367.973C303.175 368.473 306.004 368.791 308.528 368.271C311.205 367.72 313.393 366.266 315.164 363.609L311.836 361.391C310.607 363.234 309.295 364.03 307.722 364.354C305.996 364.709 303.825 364.527 300.829 364.027L300.171 367.973ZM315.164 363.609C316.551 361.529 317.533 360.654 318.642 360.181C319.851 359.664 321.477 359.5 324.5 359.5L324.5 355.5C321.523 355.5 319.123 355.625 317.07 356.503C314.915 357.423 313.397 359.049 311.836 361.391L315.164 363.609ZM324.5 359.5C325.443 359.5 326.382 359.867 327.395 360.603C328.426 361.351 329.411 362.391 330.427 363.561C331.379 364.657 332.447 365.98 333.44 366.948C334.377 367.861 335.762 369 337.5 369V365C337.525 365 337.438 365.009 337.195 364.867C336.948 364.722 336.631 364.473 336.232 364.083C335.397 363.27 334.559 362.218 333.448 360.939C332.402 359.734 331.168 358.399 329.745 357.366C328.306 356.321 326.557 355.5 324.5 355.5L324.5 359.5ZM337.5 369C337.858 369 338.266 369.026 338.786 369.062C339.285 369.096 339.872 369.139 340.492 369.156C341.745 369.19 343.218 369.125 344.799 368.673C348.059 367.742 351.314 365.307 354.252 359.964L350.748 358.036C348.186 362.693 345.691 364.258 343.701 364.827C342.657 365.125 341.63 365.185 340.602 365.157C340.081 365.143 339.582 365.107 339.061 365.071C338.562 365.037 338.017 365 337.5 365V369Z"
      fill="black"
    />
    <path
      d="M224.722 382.483C224.16 381.532 222.933 381.216 221.983 381.778C221.032 382.34 220.716 383.567 221.278 384.517L224.722 382.483ZM239.5 391L240.394 392.789C240.497 392.738 240.594 392.678 240.686 392.61L239.5 391ZM313.5 388.5L311.836 387.391L313.5 388.5ZM354.252 385.964C354.785 384.996 354.432 383.78 353.464 383.248C352.496 382.715 351.28 383.068 350.748 384.036L354.252 385.964ZM221.278 384.517C222.444 386.491 224.753 389.64 227.948 391.785C231.22 393.983 235.578 395.197 240.394 392.789L238.606 389.211C235.422 390.803 232.613 390.1 230.177 388.465C227.663 386.776 225.723 384.176 224.722 382.483L221.278 384.517ZM240.686 392.61C245.436 389.11 249.198 386.906 252.77 386.419C256.145 385.959 259.708 387.001 264.166 390.99L266.834 388.01C261.792 383.499 257.105 381.791 252.23 382.456C247.552 383.094 243.064 385.89 238.314 389.39L240.686 392.61ZM264.166 390.99C266.781 393.33 269.279 394.375 271.773 394.14C274.173 393.914 276.093 392.533 277.627 391.195C278.406 390.516 279.177 389.762 279.884 389.086C280.613 388.39 281.299 387.753 281.997 387.203C283.394 386.1 284.648 385.5 286 385.5V381.5C283.352 381.5 281.231 382.712 279.519 384.063C278.662 384.739 277.86 385.489 277.122 386.193C276.362 386.918 275.688 387.578 274.998 388.18C273.594 389.405 272.483 390.055 271.398 390.157C270.408 390.25 268.969 389.92 266.834 388.01L264.166 390.99ZM286 385.5C289.174 385.5 290.804 386.89 292.541 388.743C294.215 390.528 296.348 393.336 300.171 393.973L300.829 390.027C298.652 389.664 297.535 388.222 295.459 386.007C293.446 383.86 290.826 381.5 286 381.5V385.5ZM300.171 393.973C303.175 394.473 306.004 394.791 308.528 394.271C311.205 393.72 313.393 392.266 315.164 389.609L311.836 387.391C310.607 389.234 309.295 390.03 307.722 390.354C305.996 390.709 303.825 390.527 300.829 390.027L300.171 393.973ZM315.164 389.609C316.551 387.529 317.533 386.654 318.642 386.181C319.851 385.664 321.477 385.5 324.5 385.5L324.5 381.5C321.523 381.5 319.123 381.625 317.07 382.503C314.915 383.423 313.397 385.049 311.836 387.391L315.164 389.609ZM324.5 385.5C325.443 385.5 326.382 385.867 327.395 386.603C328.426 387.351 329.411 388.391 330.427 389.561C331.379 390.657 332.447 391.98 333.44 392.948C334.377 393.861 335.762 395 337.5 395V391C337.525 391 337.438 391.009 337.195 390.867C336.948 390.722 336.631 390.473 336.232 390.083C335.397 389.27 334.559 388.218 333.448 386.939C332.402 385.734 331.168 384.399 329.745 383.366C328.306 382.321 326.557 381.5 324.5 381.5L324.5 385.5ZM337.5 395C337.858 395 338.266 395.026 338.786 395.062C339.285 395.096 339.872 395.139 340.492 395.156C341.745 395.19 343.218 395.125 344.799 394.673C348.059 393.742 351.314 391.307 354.252 385.964L350.748 384.036C348.186 388.693 345.691 390.258 343.701 390.827C342.657 391.125 341.63 391.185 340.602 391.157C340.081 391.143 339.582 391.107 339.061 391.071C338.562 391.037 338.017 391 337.5 391V395Z"
      fill="black"
    />
  </svg>