 <svg
    width="23"
    height="30"
    viewBox="0 0 23 30"
    fill="none"
    xmlns="http://www.w3.org/2000/svg"
  >
    <path
      d="M19.75 10H18.375V7.25C18.375 3.455 15.295 0.375 11.5 0.375C7.705 0.375 4.625 3.455 4.625 7.25V10H3.25C1.73062 10 0.5 11.2306 0.5 12.75V26.5C0.5 28.0194 1.73062 29.25 3.25 29.25H19.75C21.2694 29.25 22.5 28.0194 22.5 26.5V12.75C22.5 11.2306 21.2694 10 19.75 10ZM11.5 22.375C9.98063 22.375 8.75 21.1444 8.75 19.625C8.75 18.1056 9.98063 16.875 11.5 16.875C13.0194 16.875 14.25 18.1056 14.25 19.625C14.25 21.1444 13.0194 22.375 11.5 22.375ZM15.7625 10H7.2375V7.25C7.2375 4.89875 9.14875 2.9875 11.5 2.9875C13.8512 2.9875 15.7625 4.89875 15.7625 7.25V10Z"
      fill="black"
    />
  </svg>