<svg width="25" height="25" viewBox="0 0 25 25" fill="none" xmlns="http://www.w3.org/2000/svg">
<path d="M12.5013 10.4168C13.6471 10.4168 14.5846 9.47933 14.5846 8.3335V4.16683C14.5846 3.021 13.6471 2.0835 12.5013 2.0835C11.3555 2.0835 10.418 3.021 10.418 4.16683V8.3335C10.418 9.47933 11.3555 10.4168 12.5013 10.4168Z" fill="white"/>
<path d="M19.8965 5.10417C19.584 4.79167 19.2715 4.6875 18.7507 4.6875C17.9173 4.6875 17.1882 5.41667 17.1882 6.25C17.1882 6.66667 17.3965 7.08333 17.6048 7.39583C18.959 8.75 19.6882 10.5208 19.6882 12.5C19.6882 16.5625 16.459 19.7917 12.3965 19.7917C8.33398 19.7917 5.10482 16.5625 5.10482 12.5C5.10482 10.5208 5.93815 8.64583 7.29232 7.39583C7.60482 7.08333 7.81315 6.66667 7.81315 6.25C7.81315 5.41667 7.08398 4.6875 6.25065 4.6875C5.83398 4.6875 5.41732 4.89583 5.10482 5.10417C3.22982 6.97917 2.08398 9.58333 2.08398 12.5C2.08398 18.2292 6.77148 22.9167 12.5007 22.9167C18.2298 22.9167 22.9173 18.2292 22.9173 12.5C22.9173 9.58333 21.7715 6.97917 19.8965 5.10417Z" fill="white"/>
</svg>
