<svg width="21" height="27" viewBox="0 0 21 27" fill="none" xmlns="http://www.w3.org/2000/svg">
<path d="M16.3125 6.52513C16.3125 3.42513 13.7292 0.841797 10.5 0.841797C7.27083 0.841797 4.6875 3.42513 4.6875 6.52513C4.6875 9.62513 7.27083 12.2085 10.5 12.2085C13.7292 12.2085 16.3125 9.62513 16.3125 6.52513ZM7.27083 6.52513C7.27083 4.84596 8.69167 3.42513 10.5 3.42513C12.3083 3.42513 13.7292 4.84596 13.7292 6.52513C13.7292 8.2043 12.3083 9.62513 10.5 9.62513C8.69167 9.62513 7.27083 8.2043 7.27083 6.52513Z" fill="white"/>
<path d="M0.94105 19.0544L0.295217 21.5086C-0.0922829 22.6711 0.16605 23.9627 0.94105 24.9961C1.71605 25.9002 2.74938 26.4169 4.04105 26.4169H16.9577C18.1202 26.4169 19.2827 25.9002 19.9285 24.8669C20.7035 23.8336 20.9619 22.5419 20.5744 21.3794L19.9285 18.9252C19.1535 15.6961 16.3119 13.5002 13.0827 13.5002H7.91605C4.68688 13.5002 1.84522 15.6961 0.94105 19.0544ZM2.74938 22.1544L3.39522 19.7002C4.04105 17.5044 5.84938 16.0836 7.91605 16.0836H13.0827C15.1494 16.0836 16.9577 17.5044 17.6035 19.7002L18.2494 22.1544C18.3785 22.5419 18.2494 23.0586 17.991 23.4461C17.8619 23.5752 17.4744 23.8336 16.9577 23.8336H4.04105C3.52438 23.8336 3.26605 23.5752 3.13688 23.3169C2.74938 23.0586 2.62022 22.5419 2.74938 22.1544Z" fill="white"/>
</svg>
