<svg width="31" height="31" viewBox="0 0 31 31" fill="none" xmlns="http://www.w3.org/2000/svg">
<path d="M12.8418 3.70679H19.0619V9.02499C19.0619 9.26419 18.9669 9.4936 18.7977 9.66274C18.6286 9.83188 18.3992 9.92691 18.16 9.92691H13.7437C13.5045 9.92691 13.2751 9.83188 13.106 9.66274C12.9368 9.4936 12.8418 9.26419 12.8418 9.02499V3.70679Z" fill="#00A5BF"/>
<path d="M25.2551 28.8373H6.15048C5.20044 28.8373 4.28932 28.4599 3.61754 27.7881C2.94576 27.1163 2.56836 26.2052 2.56836 25.2551V6.15048C2.56836 5.20044 2.94576 4.28932 3.61754 3.61754C4.28932 2.94576 5.20044 2.56836 6.15048 2.56836H25.2551C26.2052 2.56836 27.1163 2.94576 27.7881 3.61754C28.4599 4.28932 28.8373 5.20044 28.8373 6.15048V25.2551C28.8373 26.2052 28.4599 27.1163 27.7881 27.7881C27.1163 28.4599 26.2052 28.8373 25.2551 28.8373ZM6.15048 4.95644C5.8338 4.95644 5.53009 5.08224 5.30617 5.30617C5.08224 5.53009 4.95644 5.8338 4.95644 6.15048V25.2551C4.95644 25.5718 5.08224 25.8755 5.30617 26.0994C5.53009 26.3234 5.8338 26.4492 6.15048 26.4492H25.2551C25.5718 26.4492 25.8755 26.3234 26.0994 26.0994C26.3234 25.8755 26.4492 25.5718 26.4492 25.2551V6.15048C26.4492 5.8338 26.3234 5.53009 26.0994 5.30617C25.8755 5.08224 25.5718 4.95644 25.2551 4.95644H6.15048Z" fill="#00A5BF"/>
<path d="M10.9259 24.7553H8.53779C8.22111 24.7553 7.9174 24.6295 7.69348 24.4055C7.46955 24.1816 7.34375 23.8779 7.34375 23.5612C7.34375 23.2445 7.46955 22.9408 7.69348 22.7169C7.9174 22.493 8.22111 22.3672 8.53779 22.3672H10.9259C11.2426 22.3672 11.5463 22.493 11.7702 22.7169C11.9941 22.9408 12.1199 23.2445 12.1199 23.5612C12.1199 23.8779 11.9941 24.1816 11.7702 24.4055C11.5463 24.6295 11.2426 24.7553 10.9259 24.7553Z" fill="#00A5BF"/>
<path d="M23.8673 24.7553H21.4792C21.1625 24.7553 20.8588 24.6295 20.6349 24.4055C20.411 24.1816 20.2852 23.8779 20.2852 23.5612C20.2852 23.2445 20.411 22.9408 20.6349 22.7169C20.8588 22.493 21.1625 22.3672 21.4792 22.3672H23.8673C24.184 22.3672 24.4877 22.493 24.7116 22.7169C24.9355 22.9408 25.0613 23.2445 25.0613 23.5612C25.0613 23.8779 24.9355 24.1816 24.7116 24.4055C24.4877 24.6295 24.184 24.7553 23.8673 24.7553Z" fill="#00A5BF"/>
<path d="M23.8667 19.757H19.0905C18.7738 19.757 18.4701 19.6312 18.2462 19.4073C18.0223 19.1833 17.8965 18.8796 17.8965 18.5629C17.8965 18.2463 18.0223 17.9425 18.2462 17.7186C18.4701 17.4947 18.7738 17.3689 19.0905 17.3689H23.8667C24.1834 17.3689 24.4871 17.4947 24.711 17.7186C24.9349 17.9425 25.0607 18.2463 25.0607 18.5629C25.0607 18.8796 24.9349 19.1833 24.711 19.4073C24.4871 19.6312 24.1834 19.757 23.8667 19.757Z" fill="#00A5BF"/>
<path d="M23.8661 14.9809H16.7019C16.3852 14.9809 16.0815 14.8551 15.8575 14.6311C15.6336 14.4072 15.5078 14.1035 15.5078 13.7868C15.5078 13.4701 15.6336 13.1664 15.8575 12.9425C16.0815 12.7186 16.3852 12.5928 16.7019 12.5928H23.8661C24.1828 12.5928 24.4865 12.7186 24.7104 12.9425C24.9343 13.1664 25.0601 13.4701 25.0601 13.7868C25.0601 14.1035 24.9343 14.4072 24.7104 14.6311C24.4865 14.8551 24.1828 14.9809 23.8661 14.9809Z" fill="#00A5BF"/>
</svg>
