<svg width="38" height="38" viewBox="0 0 38 38" fill="none" xmlns="http://www.w3.org/2000/svg">
<g clip-path="url(#clip0_155_99)">
<rect width="38" height="38" fill="white"/>
<path fill-rule="evenodd" clip-rule="evenodd" d="M4.22222 38H33.7778C36.1096 38 38 36.1096 38 33.7778V4.22222C38 1.89035 36.1096 0 33.7778 0H4.22222C1.89035 0 0 1.89035 0 4.22222V33.7778C0 36.1096 1.89035 38 4.22222 38Z" fill="#CBCBCB"/>
<path fill-rule="evenodd" clip-rule="evenodd" d="M20.7112 24.6411C19.1432 24.6411 17.6682 23.7909 17.1628 22.8269C17.1628 22.8269 16.3191 26.1791 16.1414 26.8265C15.5133 29.1133 13.663 31.4017 13.519 31.5881C13.4194 31.7192 13.198 31.6779 13.1749 31.5064C13.1346 31.2145 12.6629 28.329 13.2177 25.9754C13.4959 24.7937 15.0861 18.0463 15.0861 18.0463C15.0861 18.0463 14.6219 17.1169 14.6219 15.7439C14.6219 13.5874 15.8697 11.9777 17.4237 11.9777C18.744 11.9777 19.3827 12.9714 19.3827 14.1622C19.3827 15.4932 18.5366 17.4814 18.0995 19.3262C17.7365 20.87 18.874 22.1284 20.3918 22.1284C23.1435 22.1284 24.9971 18.5873 24.9971 14.3914C24.9971 11.2033 22.8546 8.81591 18.9539 8.81591C14.5495 8.81591 11.8028 12.1071 11.8028 15.7851C11.8028 17.0518 12.1765 17.9474 12.7617 18.6384C13.0309 18.9567 13.0679 19.0846 12.9708 19.4491C12.9 19.7171 12.7411 20.362 12.6745 20.6176C12.5773 20.9862 12.2794 21.1182 11.9468 20.9813C9.91955 20.1525 8.97217 17.9251 8.97217 15.4223C8.97217 11.2891 12.4531 6.33203 19.3531 6.33203C24.8983 6.33203 28.5479 10.3514 28.5479 14.6677C28.5479 20.3768 25.3806 24.6411 20.7112 24.6411Z" fill="white"/>
</g>
<defs>
<clipPath id="clip0_155_99">
<rect width="38" height="38" fill="white"/>
</clipPath>
</defs>
</svg>
