<svg width="287" height="243" viewBox="0 0 287 243" fill="none" xmlns="http://www.w3.org/2000/svg">
<path d="M154.532 209.821L154.532 88.4277C154.532 76.4724 156.86 65.0631 161.516 54.1998C166.172 43.3365 172.465 33.9389 180.397 26.007C188.329 18.0751 197.727 11.7812 208.59 7.12554C219.453 2.46985 230.863 0.142003 242.818 0.142002L253.854 0.142001C256.843 0.142001 259.429 1.23409 261.613 3.41823C263.797 5.60239 264.889 8.18888 264.889 11.1777L264.889 33.2491C264.889 36.238 263.797 38.8245 261.613 41.0086C259.429 43.1928 256.843 44.2849 253.854 44.2849L242.818 44.2849C230.633 44.2849 220.229 48.5957 211.608 57.2174C202.986 65.839 198.675 76.2425 198.675 88.4277L198.675 93.9456C198.675 98.5438 200.285 102.452 203.503 105.671C206.722 108.89 210.631 110.499 215.229 110.499L253.854 110.499C263.05 110.499 270.867 113.718 277.305 120.155C283.742 126.593 286.961 134.41 286.961 143.606L286.961 209.821C286.961 219.017 283.742 226.834 277.305 233.271C270.867 239.709 263.05 242.928 253.854 242.928L187.64 242.928C178.443 242.928 170.626 239.709 164.189 233.271C157.751 226.834 154.532 219.017 154.532 209.821ZM0.0324068 209.821L0.0323962 88.4277C0.0323951 76.4724 2.36024 65.0631 7.01594 54.1998C11.6716 43.3365 17.9654 33.9389 25.8974 26.007C33.8293 18.0751 43.2269 11.7813 54.0901 7.12555C64.9534 2.46987 76.3627 0.142017 88.3181 0.142016L99.3538 0.142015C102.343 0.142014 104.929 1.2341 107.113 3.41824C109.297 5.6024 110.39 8.18889 110.39 11.1777L110.39 33.2492C110.39 36.238 109.297 38.8245 107.113 41.0087C104.929 43.1928 102.343 44.2849 99.3538 44.2849L88.3181 44.2849C76.1328 44.2849 65.7294 48.5957 57.1077 57.2174C48.4861 65.839 44.1752 76.2425 44.1752 88.4277L44.1752 93.9456C44.1752 98.5438 45.7846 102.452 49.0034 105.671C52.2221 108.89 56.1306 110.499 60.7288 110.499L99.3538 110.499C108.55 110.499 116.367 113.718 122.805 120.155C129.242 126.593 132.461 134.41 132.461 143.606L132.461 209.821C132.461 219.017 129.242 226.834 122.805 233.271C116.367 239.709 108.55 242.928 99.3538 242.928L33.1396 242.928C23.9431 242.928 16.1262 239.709 9.68866 233.272C3.25116 226.834 0.0324076 219.017 0.0324068 209.821Z" fill="white" fill-opacity="0.06"/>
</svg>
