  <svg
    width="320"
    height="49"
    viewBox="0 0 320 49"
    fill="none"
    xmlns="http://www.w3.org/2000/svg"
  >
    <path
      d="M303.746 21.5213V28.1916H308.434V34.8096C308.447 35.3165 308.425 35.8575 308.354 36.3231L308.315 36.5492C308.307 36.5995 308.298 36.6514 308.287 36.7044L308.249 36.8672C308.242 36.8949 308.234 36.9228 308.226 36.951L308.171 37.1227C307.75 38.3412 306.481 39.8855 303.628 39.8855C300.591 39.8855 299.372 38.1128 299.038 36.8672L298.999 36.7044L298.97 36.5492C298.886 36.0388 298.85 35.401 298.85 34.8096V13.9067C298.85 13.2495 298.889 12.537 299.008 11.9566L299.088 11.6039C299.094 11.5795 299.1 11.5547 299.107 11.5295L299.151 11.3741C299.16 11.3476 299.168 11.3207 299.177 11.2936L299.235 11.1275C299.669 9.97264 300.815 8.43447 303.604 8.43447C305.757 8.43447 306.915 9.31161 307.535 10.2182L307.645 10.3883C307.679 10.445 307.712 10.5016 307.743 10.5579L307.829 10.7256L307.906 10.8904L307.972 11.0508L308.028 11.2058L308.076 11.354L308.117 11.4941L308.149 11.6251L308.176 11.7455C308.188 11.8054 308.199 11.869 308.209 11.9351L308.236 12.1399C308.24 12.1749 308.244 12.2102 308.248 12.2457L308.276 12.5668L308.295 12.8747L308.311 13.2946L308.315 13.5097V16.0479H319.833L319.835 14.4679L319.843 13.9028L319.841 13.4648L319.83 12.9547L319.821 12.6801L319.801 12.2522L319.771 11.8137L319.746 11.5206C318.967 3.79903 313.163 0.828218 306.101 0.311271L305.628 0.280418L305.152 0.256685C304.913 0.246573 304.673 0.239074 304.432 0.234103L303.948 0.227506C303.867 0.226689 303.786 0.226689 303.705 0.226689L303.22 0.230001C303.139 0.231109 303.058 0.232497 302.978 0.234169L302.497 0.24762L302.019 0.268016L301.545 0.295504L301.075 0.330231C300.919 0.343029 300.764 0.357059 300.609 0.372344L300.148 0.421993C300.071 0.430904 299.995 0.440135 299.919 0.449689L299.464 0.510916C298.409 0.662942 297.394 0.879513 296.432 1.16907L296.023 1.29766C291.56 2.76182 288.316 5.87478 287.65 11.5206L287.582 12.1473L287.535 12.6325L287.491 13.1413L287.454 13.6474C287.433 13.9781 287.42 14.2897 287.42 14.5474L287.421 34.0227L287.424 34.2644L287.434 34.6318L287.446 34.8893L287.461 35.1644L287.482 35.4636L287.508 35.7931L287.559 36.3585L287.602 36.7923C288.249 43.9676 293.687 47.1596 300.342 47.9127L300.808 47.9613C301.588 48.0358 302.384 48.0778 303.189 48.0897L303.673 48.0932L304.16 48.0897C304.97 48.0778 305.769 48.0358 306.552 47.9613L307.02 47.9127C313.696 47.1596 319.099 43.9676 319.757 36.7923L319.81 36.1595L319.849 35.6241L319.885 35.0243L319.906 34.5076L319.925 33.776V21.5213H303.746ZM224.326 1.45703H212.759V35.2918C212.777 35.8814 212.759 36.5439 212.658 37.0295L212.623 37.1768L212.581 37.3335C212.566 37.3872 212.549 37.4422 212.53 37.4984L212.47 37.67C212.033 38.8332 210.922 40.3512 208.262 40.3512C205.768 40.3512 204.63 38.9812 204.153 37.8469L204.083 37.67C204.072 37.6409 204.062 37.612 204.052 37.5834L203.997 37.415L203.952 37.254C203.946 37.2279 203.939 37.2021 203.933 37.1768L203.901 37.0295C203.786 36.5439 203.771 35.8814 203.786 35.2918V1.45703H192.222V34.2417L192.22 34.5053L192.224 34.9662L192.24 35.6443L192.272 36.4685L192.294 36.8834L192.309 37.1036L192.324 37.2656C192.89 43.3312 196.449 46.4885 201.474 47.8096L201.902 47.9169C202.837 48.14 203.82 48.3025 204.841 48.4111L205.315 48.4574L205.795 48.4962L206.279 48.5277C206.522 48.5415 206.767 48.5527 207.014 48.5613L207.51 48.5749L208.011 48.5816C208.094 48.5824 208.178 48.5824 208.262 48.5824L208.766 48.5791C208.849 48.578 208.933 48.5766 209.016 48.5749L209.513 48.5613C209.76 48.5527 210.006 48.5415 210.249 48.5277L210.734 48.4962L211.214 48.4574L211.689 48.4111C218.454 47.6927 223.529 44.6127 224.228 37.2656L224.237 37.1926L224.256 37.0001L224.284 36.6162L224.309 36.1517L224.323 35.8159L224.337 35.3008L224.341 34.9662L224.34 34.6516L224.332 34.3682C224.331 34.3242 224.328 34.282 224.326 34.2417V1.45703ZM118.047 1.45703L112.277 37.2081L106.51 1.45703H87.8519L86.8623 47.193H98.2931L98.6026 4.85384L106.467 47.193H118.065L125.937 4.85384L126.247 47.193H137.707L136.684 1.45703H118.047ZM48.9648 1.45703L40.4927 47.193H52.8472L59.2315 4.85384L65.4625 47.193H77.7313L69.2945 1.45703H48.9648ZM264.751 38.2799L253.98 1.45703H237.008V46.7161H248.235L247.583 8.71518L259.15 46.7161H275.428V1.45703H264.127L264.751 38.2799ZM160.898 13.36C160.695 12.4567 160.753 11.4971 160.859 10.9956C160.888 10.8625 160.923 10.7283 160.965 10.5943L161.032 10.3936C161.488 9.1257 162.556 7.93469 165.004 7.93469C167.645 7.93469 169.194 9.58142 169.194 12.0527V14.8493H180.469V11.6615C180.469 4.46776 175.761 1.70048 170.73 0.730575L170.316 0.65485L169.901 0.586895L169.486 0.526387L169.071 0.473L168.656 0.42641L168.243 0.386293C168.105 0.373963 167.968 0.362658 167.831 0.352324L167.422 0.324179L167.016 0.301534L166.613 0.284064L166.214 0.271444L165.82 0.263351L165.238 0.258989L164.981 0.259893L164.471 0.267172C164.387 0.268998 164.302 0.271133 164.218 0.273577L163.714 0.291995C163.547 0.299391 163.381 0.30805 163.215 0.317991L162.722 0.351687C155.843 0.877886 150.475 3.70348 149.401 10.3296C149.083 12.3475 149.004 14.1387 149.51 16.4244C150.306 20.1803 153.435 22.8531 157.027 25.0949L157.583 25.4365C157.676 25.4929 157.769 25.549 157.863 25.6049L158.427 25.9373L158.994 26.2641L159.564 26.5861L160.419 27.0609L162.665 28.2918L163.211 28.5944L163.747 28.896L164.273 29.1971L164.786 29.4983C167.234 30.9552 169.195 32.4326 169.901 34.1989C170.291 35.2482 170.206 36.571 170.017 37.415L169.985 37.551C169.938 37.7539 169.88 37.957 169.806 38.1565L169.727 38.3548C169.207 39.5685 168.072 40.6031 165.577 40.6031C162.731 40.6031 161.018 38.967 161.018 36.501L161.014 32.1117H148.878V35.6007C148.878 43.7898 154.073 47.347 160.58 48.4031L161.064 48.4768C161.389 48.5229 161.716 48.5631 162.046 48.5975L162.543 48.6449C163.124 48.6953 163.713 48.7285 164.305 48.7461L164.814 48.7573C164.899 48.7585 164.985 48.7594 165.07 48.7601L165.325 48.761C165.496 48.761 165.665 48.7598 165.834 48.7573L166.339 48.7463C166.423 48.7438 166.506 48.7411 166.59 48.738L167.088 48.7157C167.253 48.707 167.418 48.697 167.582 48.6857L168.071 48.6481C168.395 48.6203 168.716 48.5873 169.034 48.549L169.508 48.4874L169.975 48.4176C170.13 48.3929 170.284 48.3669 170.437 48.3395L170.893 48.253C176.401 47.1494 180.5 44.1569 181.323 38.4032C181.436 37.545 181.506 36.7525 181.543 36.028L181.564 35.5552C181.566 35.4781 181.569 35.4018 181.571 35.3264L181.578 34.8841V34.4623L181.571 34.0612L181.558 33.681L181.54 33.3219C181.536 33.2638 181.532 33.2066 181.529 33.1502L181.504 32.8229L181.475 32.517L181.444 32.2326L181.394 31.8469L181.342 31.5105L181.274 31.1399L181.242 30.9882C180.448 27.0055 176.961 24.1923 173.088 21.8767L172.532 21.5492L171.972 21.228L171.411 20.9128L170.567 20.45L169.448 19.8495L167.54 18.8345L166.754 18.4097C166.668 18.3627 166.583 18.3158 166.498 18.269L165.996 17.9888L165.508 17.7097C163.104 16.3162 161.287 14.9479 160.898 13.36ZM12.1566 13.2478C11.9491 12.3834 11.9815 11.4741 12.088 10.9457L12.1321 10.7479L12.1821 10.5521C12.563 9.17876 13.6045 7.76321 16.2963 7.76321C18.9714 7.76321 20.5465 9.42579 20.5465 11.917V14.7477H31.9543V11.5347C31.9543 4.66985 27.6837 1.78682 22.9116 0.659058L22.4954 0.565361C22.1477 0.490877 21.798 0.425271 21.4476 0.367695L21.027 0.302405L20.6063 0.2445L20.1861 0.193653L19.7669 0.149539C19.6275 0.135921 19.4882 0.123371 19.3494 0.111834L18.934 0.0802119L18.5213 0.0543472L18.1119 0.0339146L17.7063 0.018589L17.305 0.00804488L16.7125 0H16.5177C16.3467 0 16.1763 0.00119525 16.0067 0.0036051L15.4998 0.0144978C15.1633 0.0242147 14.8297 0.0388674 14.4994 0.0586108L14.0063 0.0920634C13.9246 0.0982817 13.843 0.104823 13.7617 0.11169L13.2763 0.156814C13.1154 0.17317 12.9553 0.190848 12.7963 0.209865L12.3218 0.270959C11.9289 0.325254 11.542 0.388048 11.1618 0.459642L10.7087 0.5498L10.2623 0.648524L9.82263 0.755928C9.67724 0.79319 9.53303 0.831918 9.39002 0.872131L8.96467 0.997247C4.5374 2.35817 1.34687 5.21244 0.541469 10.1652C0.20907 12.2154 0.152105 14.0189 0.632497 16.3298C1.47825 20.3233 4.92764 23.1044 8.7867 25.4412L9.35411 25.7801C9.44908 25.8361 9.54423 25.8918 9.63953 25.9474L10.2128 26.2777L11.0762 26.7641L12.2254 27.3982L13.9206 28.3271L14.7441 28.7855L15.5446 29.2423L16.063 29.5467C16.1483 29.5975 16.233 29.6483 16.3171 29.6992L16.8139 30.0048C18.9326 31.3318 20.5919 32.6986 21.2324 34.3011C21.6519 35.3431 21.5538 36.6656 21.3556 37.537L21.3217 37.6779C21.2727 37.8784 21.2126 38.0792 21.1383 38.2768L21.0591 38.4732C20.5262 39.7083 19.3824 40.7676 16.8548 40.7676C13.9977 40.7676 12.2888 39.1032 12.2888 36.6032L12.2729 32.2021H0V35.6994C0 45.516 7.40138 48.7426 15.5981 48.985L16.1114 48.9963L16.6264 49L17.1356 48.9964C17.3892 48.9928 17.6414 48.9864 17.8919 48.9773L18.3907 48.9552C18.639 48.9423 18.8856 48.9266 19.1304 48.908L19.6175 48.8669L20.0995 48.8179C20.2592 48.8003 20.4181 48.7814 20.5761 48.7611L21.0472 48.6962C21.2033 48.6732 21.3585 48.6488 21.5126 48.6231L21.972 48.5418C27.676 47.4738 31.927 44.4481 32.7829 38.53C32.9009 37.6846 32.9746 36.9024 33.0157 36.1857L33.0385 35.7175L33.0524 35.2689C33.0556 35.1226 33.0575 34.9796 33.0582 34.8399L33.0567 34.4308L33.0486 34.0415L33.0348 33.6724L33.016 33.3234L32.9929 32.9948L32.9664 32.6867L32.9218 32.2633L32.8737 31.8868L32.8087 31.4586L32.7348 31.0434C31.9433 27.1078 28.5606 24.3079 24.7546 22.005L24.1949 21.6715C24.1012 21.6165 24.0073 21.5617 23.9132 21.5072L23.3473 21.1835L22.779 20.8658L22.2101 20.5536L21.6418 20.2465L19.1346 18.9156L18.3328 18.4859L17.8122 18.202L17.3043 17.9196L16.8108 17.6384C16.7299 17.5916 16.6496 17.5448 16.57 17.498L16.1008 17.2175C14.0293 15.9557 12.5082 14.6933 12.1566 13.2478Z"
      fill="#1428A0"
    />
  </svg>