<svg width="431" height="255" viewBox="0 0 431 255" fill="none" xmlns="http://www.w3.org/2000/svg">
<path d="M431 251.256C426.771 250.211 423.018 246.981 420.215 243.751C417.316 240.474 414.988 236.912 412.803 233.207C408.384 225.798 404.44 217.771 397.646 208.889C384.01 190.983 362.724 188.323 354.267 186.613C350.418 185.853 344.194 184.666 338.92 183.906C337.732 183.716 336.545 183.573 335.499 183.431C346.57 181.388 355.597 182.908 364.102 185.188C373.51 187.658 382.347 191.41 395.033 192.36C403.538 192.93 411.282 191.268 416.889 188.37C422.543 185.568 425.869 181.578 427.532 178.301C429.29 175.071 429.385 172.079 429.385 170.227C429.29 168.327 428.909 167.33 428.909 167.33C422.543 172.554 415.416 172.602 409.334 170.939C403.11 169.277 397.313 166.095 389.189 163.577C381.064 161.013 372.892 162.057 366.05 164.432C359.161 166.76 353.697 170.369 350.418 172.222C347.473 173.884 342.864 176.781 339.11 179.346C337.02 180.818 335.167 182.148 333.931 183.003C322.766 176.259 311.363 169.894 299.77 163.957C308.037 162.39 315.069 162.675 322.053 163.197C330.796 163.862 339.776 164.955 350.561 162.295C365.005 158.448 371.324 149.851 373.177 143.819C375.077 137.597 373.51 133.465 373.51 133.465C367.856 137.787 361.774 138.547 355.977 138.262C350.086 137.977 344.337 136.647 337.495 136.362C330.653 136.029 324.999 138.832 320.01 142.394C315.069 145.909 310.983 150.183 308.417 152.368C305.614 154.79 300.34 159.35 296.872 162.39C294.876 161.392 292.833 160.395 290.837 159.398C288.367 157.64 285.183 155.788 282.38 154.79C281.05 154.363 279.909 154.031 278.864 153.793C276.441 152.701 274.065 151.608 271.642 150.563C266.226 148.236 260.714 146.051 255.155 143.961C262.235 143.296 268.079 143.296 273.923 143.724C278.104 144.009 282.238 144.341 286.466 144.484C290.837 144.579 294.686 144.674 300.245 143.581C306.944 142.204 310.793 140.162 313.786 138.167C316.732 136.124 318.727 133.987 320.628 131.992C322.338 130.092 324.049 128.24 325.379 126.815C326.615 125.485 327.28 124.583 327.28 124.583C319.773 122.778 313.834 121.923 307.562 120.451C304.569 119.833 301.29 119.121 298.202 118.503C296.586 118.218 295.066 117.886 293.641 117.648C292.215 117.363 290.79 117.078 288.794 116.983C281.572 116.413 275.966 119.406 271.357 123.015C266.748 126.625 263.042 130.9 260.524 133.132C258.339 135.08 254.68 138.309 251.259 140.874C250.737 141.254 250.262 141.634 249.786 141.966C235.485 136.694 220.899 132.23 206.075 128.763C218.143 124.915 227.74 123.015 237.291 121.353C247.886 119.501 258.291 117.886 269.599 113.279C271.5 112.519 273.258 111.664 275.016 110.809C276.964 109.811 278.484 108.862 279.862 107.959C282.665 106.107 284.756 104.302 286.561 102.64C290.077 99.2673 292.263 96.275 294.021 93.6152C295.779 90.9555 297.157 88.5806 298.059 86.9183C298.962 85.2084 299.39 84.116 299.39 84.116C289.84 85.2084 282.523 86.8708 274.826 87.6782C271.025 88.1532 267.319 88.4856 263.66 88.6756C259.812 88.9606 255.583 89.4356 251.117 90.338C242.137 92.0479 235.723 96.655 230.496 101.5C225.317 106.392 221.326 111.521 218.618 114.324C216.242 116.793 212.204 120.878 208.593 124.155C206.882 125.723 205.267 127.148 204.032 128.193C196.144 126.388 188.162 124.915 180.133 123.775C173.528 122.778 166.877 122.113 160.225 121.638C181.653 104.729 199.28 103.922 220.946 93.5677C236.103 86.3958 243.562 78.7014 247.506 72.5269C251.402 66.3998 251.544 61.7452 251.544 61.7452C233.727 69.3921 220.186 66.1624 200.326 72.1944C180.56 78.3689 172.673 96.5125 168.492 103.542C165.831 108.102 160.938 116.983 158.419 121.496C144.783 120.593 131.1 120.783 117.511 122.113C123.783 112.424 132.145 106.344 140.365 100.977C149.962 94.6602 160.51 89.2456 170.63 77.894C182.936 64.12 186.309 52.3409 186.594 44.7415C186.88 37.0946 184.314 33.1999 184.314 33.1999C178.897 41.6068 172.483 46.6889 165.641 51.1535C162.173 53.3384 158.467 55.6657 154.951 57.898C151.197 60.2728 147.349 63.0276 143.69 65.4024C135.708 70.817 130.244 78.1314 126.396 85.3984C122.547 92.6653 120.694 99.6948 119.459 103.732C118.271 107.294 116.751 113.231 115.943 118.123C115.658 119.691 115.468 121.116 115.278 122.351C105.11 123.443 94.9423 125.105 84.9647 127.575C80.6885 128.668 76.4599 129.855 72.2312 131.185C77.4101 125.533 81.6388 120.213 85.5823 115.226C90.7137 108.577 95.37 102.45 99.6936 96.275C104.017 90.148 108.198 83.8785 111.904 77.324C115.468 71.1495 119.221 64.5 122.642 56.5206C127.203 45.8814 129.294 36.1447 129.484 28.1178C129.674 20.0909 128.011 13.8689 126.016 9.64175C123.925 5.36708 121.597 2.99227 119.792 1.66237C118.034 0.332474 116.941 0 116.941 0C118.794 11.8741 114.85 21.2783 110.051 29.4002C105.11 37.6646 98.7909 45.1215 92.0916 55.9507C85.1547 67.3498 83.0166 77.4665 81.1636 86.6333C79.4532 95.8001 78.6455 103.874 77.5052 108.672C76.5074 112.946 74.6069 119.976 72.1362 125.96C71.2335 128.24 70.2357 130.33 69.3805 132.087C59.3078 135.412 49.5202 139.449 40.1126 144.341C35.9315 146.526 31.7979 148.853 27.7593 151.323C27.9494 151.086 28.1869 150.801 28.377 150.563C32.6056 145.291 36.4066 140.019 39.78 134.462C43.2485 128.905 46.4318 123.063 49.2351 116.461C52.0383 109.859 54.4615 102.497 55.8869 93.8052C57.3598 85.1609 56.8846 76.2791 55.1742 68.7272C53.3687 61.0803 50.4704 54.6208 47.2395 49.1587C40.7778 38.282 33.2708 31.5851 28.8996 27.5954C25.0511 23.9856 18.3993 18.761 12.5077 15.5788C6.66366 12.254 2.00741 11.0666 2.00741 11.0666C9.70448 16.2912 15.5485 24.3656 19.4921 32.2025C23.4832 40.1344 25.9538 48.2088 27.4267 56.1406C30.4675 72.2419 29.2797 86.4908 26.0013 104.777C21.4876 128.905 17.6391 142.489 15.5961 151.893C14.6933 155.645 14.0281 158.733 13.553 161.013C9.08681 164.432 4.76315 168.137 0.677057 172.222C-0.225686 173.172 -0.225686 174.644 0.677057 175.546C1.62731 176.449 3.10021 176.449 4.00295 175.546L4.14548 175.404C7.13879 172.364 10.3697 169.514 13.7431 166.76C14.2657 166.807 14.7883 166.855 15.2635 166.902C16.2137 167.187 17.1165 167.425 17.9717 167.662C19.7772 168.089 21.5352 168.707 23.3406 169.562C25.0986 170.369 26.8091 170.987 28.5195 171.984C35.2663 175.499 41.1579 179.774 46.7644 184.191C57.9774 193.12 68.0501 202.904 82.0664 212.831C100.691 226.082 114.898 230.31 123.973 230.975C133.19 231.592 137.229 229.027 137.229 229.027C115.04 216.298 108.388 200.624 88.4331 182.718C68.4777 164.48 43.6761 163.15 33.6034 162.77C29.7073 162.485 23.6257 162.485 18.5418 163.102C25.9538 157.545 33.936 152.606 42.1082 148.331C43.8661 147.381 45.6716 146.479 47.4771 145.576C52.3234 145.006 57.3598 145.814 61.9685 147.714C69.0954 150.468 75.2721 154.933 80.8311 159.968C86.5326 165.097 91.2363 170.559 97.7456 176.971C103.495 182.576 109.339 188.513 116.276 194.877C134.568 212.024 149.867 219.385 159.702 221.238C164.644 222.235 168.207 222.14 170.583 221.76C172.911 221.428 174.004 220.858 174.004 220.858C162.078 213.306 154.903 204.519 148.204 195.305C141.505 186.043 135.376 176.069 125.018 164.765C122.405 161.962 119.696 159.398 116.893 157.118C115.42 155.93 114.28 155.028 113.045 154.126C111.762 153.128 110.431 152.226 109.054 151.276C103.637 147.524 97.8406 144.484 92.3291 142.394C81.1636 138.119 71.376 137.787 65.8645 137.929C65.722 137.929 65.4844 137.929 65.3419 137.929C72.1362 135.46 79.0256 133.275 86.0099 131.47C92.8043 129.76 99.7411 128.383 106.678 127.29C119.506 132.705 128.534 141.587 136.231 150.421C145.401 160.965 152.86 172.507 165.594 184.713C172.911 191.743 180.085 198.012 186.737 201.954C193.389 205.992 199.47 207.986 204.222 208.556C209.02 209.079 212.394 208.319 214.437 207.416C216.48 206.514 217.288 205.659 217.288 205.659C211.776 203.759 207.453 200.292 203.984 196.54C200.516 192.74 197.76 188.655 195.194 184.381C192.581 180.059 190.158 175.594 187.117 170.749C185.644 168.374 183.649 165.715 182.081 163.435C180.465 161.155 178.707 158.685 176.712 156.168C168.872 145.956 159.085 138.974 149.867 134.605C140.65 130.187 132.24 128.525 127.346 127.433C125.018 126.863 121.93 126.293 118.604 125.818C133.903 124.25 149.392 124.203 164.786 125.485C170.25 126.673 175.476 130.33 179.468 134.7C184.266 140.019 187.735 146.146 190.585 152.558C192.058 155.74 193.341 159.065 194.672 162.437L196.905 167.852C197.712 169.609 198.473 171.414 199.233 173.124C202.369 180.154 205.98 187.563 211.111 195.4C217.905 205.802 225.792 213.306 233.109 217.818C240.474 222.378 247.221 223.898 252.067 224.135C254.585 224.135 256.676 223.898 258.339 223.613C260.049 223.185 261.379 222.615 262.425 222.14C264.42 221.143 265.228 220.288 265.228 220.288C253.112 216.773 246.175 208.604 241.472 200.055C236.673 191.363 233.585 181.863 228.406 169.847C225.84 163.91 222.514 158.305 219.188 153.841C215.957 149.328 212.014 144.626 208.07 141.064C201.038 134.557 193.911 130.757 189.065 128.525C202.036 130.71 214.865 133.797 227.503 137.549C235.152 144.626 238.573 153.603 240.759 162.342C243.325 172.697 245.083 185.046 252.352 197.822C257.151 206.372 262.805 212.166 267.936 215.823C273.115 219.528 277.819 221.238 281.572 221.95C284.993 222.568 287.607 222.425 289.555 222.093C290.41 223.613 291.36 224.99 292.358 226.225C296.206 231.022 300.625 233.492 304.141 234.394C307.704 235.297 310.46 234.917 312.266 234.347C314.071 233.824 314.974 233.207 314.974 233.207C308.797 228.41 307.562 221.665 308.132 215.681C308.655 209.554 310.65 203.142 311.125 194.877C311.886 187.42 309.13 179.299 305.044 173.362C303.191 170.559 301.148 168.232 299.152 166.285C306.279 169.894 313.311 173.647 320.248 177.541C325.379 184.903 326.329 192.978 326.377 200.767C326.519 209.459 325.474 218.816 329.275 230.405C331.888 238.052 335.879 243.656 340.061 247.028C344.052 250.591 348.233 251.968 351.416 252.633C358.115 253.63 361.916 251.446 361.916 251.446C356.452 246.316 354.552 240.189 353.982 234.299C353.459 228.267 354.362 222.425 354.219 215.348C354.124 208.319 350.989 202.002 346.855 196.73C344.099 193.168 340.963 190.318 338.35 188.133C339.918 189.083 341.486 190.033 343.006 190.983C349.991 196.207 355.407 201.812 360.396 207.511C368.283 216.583 374.982 226.082 385.15 236.057C398.644 249.308 410.855 254.485 419.502 254.96C423.778 255.198 426.914 254.343 428.672 253.155C430.477 252.205 431 251.256 431 251.256ZM279.387 200.624C276.869 193.215 275.491 185.616 273.02 176.591C271.785 172.079 269.979 168.089 267.746 164.385C265.513 160.633 262.805 157.118 259.907 154.126C255.916 149.946 251.734 146.954 248.313 144.769C248.504 144.721 248.646 144.721 248.836 144.674C256.106 147.286 263.28 150.088 270.407 153.081C273.448 154.363 276.489 155.693 279.482 157.07C281.002 159.065 282.19 161.487 282.903 163.862C284.233 168.137 284.518 172.554 284.423 176.924C284.328 181.341 283.853 185.806 283.568 190.65C283.473 193.168 283.33 195.59 283.52 198.63C283.663 201.574 283.948 203.997 284.423 206.941C284.803 209.174 285.278 211.311 285.896 213.401C282.903 209.364 280.907 205.042 279.387 200.624Z" fill="#D0D0D0" fill-opacity="0.11"/>
</svg>
