<svg width="125" height="125" viewBox="0 0 125 125" fill="none" xmlns="http://www.w3.org/2000/svg">
<circle cx="62.4535" cy="62.5467" r="61.7733" fill="#EFF3F6"/>
<path d="M99.5249 56.16L97.7199 60.625C97.1499 62.145 97.1499 63.76 97.7199 65.28L99.5249 69.745C100.57 72.405 99.7149 75.445 97.3399 77.155L93.3499 79.91C92.0199 80.86 91.1649 82.285 90.7849 83.805L89.9299 88.555C89.3599 91.405 86.9849 93.495 84.1349 93.59L79.2899 93.78C77.6749 93.875 76.1549 94.54 75.0149 95.68L71.6899 99.195C69.6949 101.285 66.5599 101.76 64.0899 100.335L59.9099 97.865C58.4849 97.01 56.8699 96.82 55.2549 97.2L50.5049 98.34C47.7499 99.005 44.8049 97.675 43.4749 95.11L41.2899 90.74C40.5299 89.315 39.2949 88.175 37.7749 87.7L33.2149 86.18C30.4599 85.23 28.7499 82.57 29.0349 79.72L29.5099 74.875C29.6999 73.26 29.2249 71.645 28.1799 70.41L25.1399 66.61C23.3349 64.33 23.3349 61.195 25.1399 58.915L28.1799 55.115C29.2249 53.88 29.6999 52.265 29.5099 50.65L29.0349 45.805C28.7499 42.955 30.4599 40.295 33.2149 39.345L37.7749 37.825C39.2949 37.35 40.5299 36.21 41.2899 34.785L43.4749 30.415C44.8049 27.85 47.6549 26.52 50.5049 27.185L55.2549 28.325C56.7749 28.705 58.4849 28.515 59.9099 27.66L64.0899 25.19C66.5599 23.765 69.6949 24.145 71.6899 26.33L75.0149 29.845C76.1549 30.985 77.6749 31.745 79.2899 31.745L84.1349 31.935C86.9849 32.03 89.4549 34.12 89.9299 36.97L90.7849 41.72C91.0699 43.335 92.0199 44.76 93.3499 45.615L97.3399 48.37C99.7149 50.46 100.665 53.5 99.5249 56.16Z" fill="#18BFDA"/>
<g opacity="0.15">
<path d="M46.2299 94.825L44.0449 90.455C43.2849 89.03 42.0499 87.89 40.5299 87.415L35.9699 85.895C33.2149 84.945 31.5049 82.285 31.7899 79.435L32.2649 74.59C32.4549 72.975 31.9799 71.36 30.9349 70.125L27.8949 66.325C26.0899 64.045 26.0899 60.91 27.8949 58.63L30.9349 54.83C31.9799 53.595 32.4549 51.98 32.2649 50.365L31.7899 45.52C31.5049 42.67 33.2149 40.01 35.9699 39.06L40.5299 37.54C42.0499 37.065 43.2849 35.925 44.0449 34.5L46.2299 30.13C46.9899 28.61 48.3199 27.565 49.7449 27.09C47.1799 26.71 44.6149 28.04 43.4749 30.415L41.2899 34.785C40.5299 36.21 39.2949 37.35 37.7749 37.825L33.2149 39.345C30.4599 40.295 28.7499 42.955 29.0349 45.805L29.5099 50.65C29.6999 52.265 29.2249 53.88 28.1799 55.115L25.1399 58.915C23.3349 61.195 23.3349 64.33 25.1399 66.61L28.1799 70.41C29.2249 71.645 29.6999 73.26 29.5099 74.875L29.0349 79.72C28.7499 82.57 30.4599 85.23 33.2149 86.18L37.7749 87.7C39.2949 88.175 40.5299 89.315 41.2899 90.74L43.4749 95.11C44.8049 97.675 47.6549 99.005 50.5049 98.34L51.0749 98.245C48.9849 97.865 47.1799 96.725 46.2299 94.825Z" fill="black"/>
<path d="M62.5698 27.375L66.7498 24.905C67.1298 24.715 67.5098 24.525 67.8898 24.43C66.5598 24.24 65.1348 24.525 63.9948 25.19L59.8148 27.66C59.4348 27.85 59.0548 28.04 58.6748 28.135C60.0048 28.325 61.3348 28.135 62.5698 27.375Z" fill="black"/>
<path d="M81.9499 93.4C81.4749 93.4 80.9999 93.495 80.6199 93.59L84.0399 93.4C84.5149 93.4 84.8949 93.305 85.3699 93.21L81.9499 93.4Z" fill="black"/>
<path d="M66.75 99.955L62.57 97.485C61.145 96.63 59.53 96.44 57.915 96.82L57.345 96.915C58.2 97.01 58.96 97.295 59.72 97.675L63.9 100.145C65.515 101.095 67.32 101.19 69.03 100.62C68.27 100.62 67.51 100.43 66.75 99.955Z" fill="black"/>
</g>
<path d="M46.7998 56.92L58.6748 70.505L82.9948 50.935" fill="#18BFDA"/>
<path d="M55.8249 77.535C54.4949 77.535 53.1649 76.965 52.2149 75.92L40.3399 62.335C38.6299 60.34 38.8199 57.395 40.7199 55.59C42.7149 53.88 45.6599 54.07 47.4649 55.97L56.3949 66.135L77.1999 49.415C79.1949 47.8 82.2349 48.085 83.8499 50.175C85.4649 52.265 85.1799 55.21 83.0899 56.825L58.7699 76.49C57.9149 77.155 56.8699 77.535 55.8249 77.535Z" fill="white"/>
</svg>
